<svg xmlns="http://www.w3.org/2000/svg" width="1458" height="1458" viewBox="0 0 1458 1458" version="1.1"><path d="M 698.201 73.017 C 591.677 78.339, 489.958 108.446, 399 161.576 C 311.862 212.474, 238.249 281.921, 182.314 366 C 121.864 456.865, 87.212 554.746, 75.284 668.327 C 72.852 691.485, 72.852 766.515, 75.284 789.673 C 86.108 892.740, 115.291 981.664, 166.298 1067 C 222.515 1161.054, 305.972 1243.118, 401 1297.785 C 419.401 1308.371, 454.213 1325.765, 473 1333.759 C 536.401 1360.740, 606.143 1377.860, 675.490 1383.465 C 711.233 1386.354, 777.401 1385.109, 808.486 1380.962 C 883.578 1370.944, 944.242 1353.414, 1009.305 1322.934 C 1107.217 1277.065, 1194.981 1204.564, 1259.202 1116.500 C 1329.604 1019.960, 1370.537 912.182, 1383.204 790 C 1384.986 772.812, 1384.986 685.188, 1383.204 668 C 1376.557 603.882, 1362.265 544.114, 1340.312 488.626 C 1255.900 275.271, 1066.720 120.928, 842 82.077 C 796.109 74.143, 742.843 70.787, 698.201 73.017 M 703 117.575 C 700.525 117.781, 691.525 118.440, 683 119.040 C 592.554 125.402, 502.535 153.057, 423.584 198.734 C 359.973 235.537, 306.615 280.572, 258.580 338 C 192.449 417.062, 147.158 513.077, 128.153 614.500 C 120.405 655.846, 117.657 686.159, 117.680 730 C 117.724 810.617, 132.284 885.209, 162.478 959.500 C 231.301 1128.836, 375.546 1260.726, 549.798 1313.647 C 677.300 1352.370, 817.386 1348.487, 940 1302.831 C 972.926 1290.571, 1013.964 1271.036, 1042 1254.278 C 1183.102 1169.935, 1285.753 1030.725, 1323.484 872.542 C 1348.689 766.873, 1345.749 656.507, 1314.986 553.500 C 1266.883 392.433, 1154.030 257.946, 1003.350 182.123 C 935.805 148.134, 865.723 127.815, 789 119.976 C 769.691 118.003, 715.888 116.501, 703 117.575 M 707.500 164.630 C 706.400 164.827, 690.697 166.331, 672.605 167.972 C 654.513 169.613, 639.527 171.139, 639.303 171.363 C 639.079 171.588, 639.211 175.253, 639.597 179.508 L 640.298 187.246 646.399 186.634 C 664.203 184.850, 670 184.699, 670 186.019 C 670 191.819, 682.835 327.168, 683.442 327.776 C 683.682 328.016, 687.619 327.827, 692.189 327.356 C 700.241 326.527, 700.493 326.422, 700.291 324 C 698.037 296.964, 695.431 267.345, 693.518 247 C 689.146 200.498, 687.772 183.895, 688.255 183.412 C 688.518 183.149, 694.849 182.367, 702.325 181.675 C 709.801 180.982, 716.185 180.149, 716.511 179.822 C 716.837 179.496, 716.794 175.803, 716.414 171.615 L 715.724 164 712.612 164.136 C 710.900 164.211, 708.600 164.433, 707.500 164.630 M 762.577 166.237 C 762.320 167.481, 760.940 180.200, 759.512 194.500 C 756.221 227.442, 750.600 282.117, 748.101 305.500 C 747.043 315.400, 746.275 323.600, 746.394 323.722 C 746.818 324.156, 763.506 325.828, 763.862 325.472 C 764.061 325.273, 765.795 309.448, 767.715 290.305 C 769.635 271.162, 771.504 255.178, 771.869 254.784 C 772.234 254.390, 780.850 254.951, 791.016 256.031 C 801.182 257.111, 809.679 257.996, 809.898 257.997 C 810.571 258.002, 809.102 275.268, 806.069 303 C 804.475 317.575, 803.270 329.600, 803.391 329.722 C 803.831 330.166, 820.510 331.823, 820.874 331.459 C 821.080 331.253, 821.870 324.878, 822.629 317.292 C 824.129 302.296, 829.177 253.815, 834.425 204 C 836.250 186.675, 837.664 172.400, 837.566 172.278 C 837.195 171.813, 820.481 170.186, 820.090 170.577 C 819.668 170.999, 813.125 232.513, 813.025 237 C 812.913 242.023, 812.581 242.092, 796.449 240.487 C 770.969 237.951, 772.912 238.484, 773.504 234.188 C 773.784 232.160, 775.356 217.225, 776.998 201 C 778.641 184.775, 780.195 170.296, 780.452 168.825 C 780.913 166.192, 780.816 166.141, 774.210 165.524 C 770.519 165.180, 766.498 164.690, 765.272 164.435 C 763.572 164.083, 762.934 164.509, 762.577 166.237 M 889.578 184.146 C 888.761 186.668, 881.221 211.417, 876.523 227 C 873.953 235.525, 870.568 246.550, 869 251.500 C 867.432 256.450, 864.108 267.250, 861.613 275.500 C 859.119 283.750, 853.917 300.820, 850.055 313.432 C 846.192 326.045, 843.137 336.438, 843.266 336.527 C 843.528 336.708, 868.421 344.375, 886 349.688 C 892.325 351.600, 899.434 353.782, 901.798 354.538 C 905.099 355.593, 906.197 355.632, 906.528 354.706 C 908.087 350.351, 910.867 340.533, 910.613 340.280 C 910.445 340.112, 906.751 338.913, 902.404 337.617 C 877.675 330.241, 866.418 326.706, 865.768 326.109 C 865.182 325.570, 880.463 273.495, 881.611 272.119 C 881.786 271.909, 889.658 274.107, 899.105 277.003 C 908.552 279.899, 916.967 282.321, 917.806 282.385 C 918.838 282.463, 919.921 280.557, 921.152 276.500 C 922.154 273.200, 922.979 269.790, 922.986 268.923 C 922.997 267.741, 918.477 265.988, 905 261.945 C 892.994 258.343, 887 256.086, 887 255.167 C 887 254.410, 889.662 245.175, 892.915 234.645 C 896.168 224.115, 899.575 212.912, 900.486 209.750 C 901.397 206.588, 902.299 204, 902.491 204 C 902.684 204, 912.349 206.910, 923.971 210.468 C 935.592 214.025, 945.837 217.062, 946.736 217.218 C 947.973 217.431, 948.926 215.689, 950.657 210.055 C 951.914 205.960, 952.843 202.511, 952.722 202.391 C 952.600 202.270, 939 198.020, 922.500 192.945 C 906 187.870, 891.941 183.510, 891.258 183.255 C 890.576 183.001, 889.819 183.402, 889.578 184.146 M 562.317 187.449 C 548.703 190.528, 539.850 196.532, 535.318 205.761 C 532.760 210.971, 532.503 212.468, 532.536 222 C 532.566 230.755, 533.088 234.245, 535.677 243 C 537.385 248.775, 542.231 265.425, 546.446 280 C 557.608 318.602, 558.993 322.993, 561.687 328.340 C 566.986 338.860, 576.887 346.225, 587.500 347.541 C 598.608 348.919, 615.747 342.618, 622.568 334.650 C 628.278 327.978, 630.266 321.140, 629.733 310 C 629.353 302.038, 628.191 296.777, 622.557 277.500 C 618.860 264.850, 613.127 245.061, 609.818 233.524 C 606.508 221.987, 602.470 209.912, 600.843 206.690 C 592.765 190.686, 578.813 183.718, 562.317 187.449 M 561.816 204.581 C 552.550 207.432, 548.197 215.500, 549.989 226.500 C 550.437 229.250, 553.957 242.300, 557.810 255.500 C 561.664 268.700, 567.103 287.420, 569.897 297.100 C 575.799 317.549, 576.988 320.644, 580.582 324.915 C 585.567 330.840, 591.714 332.364, 600.276 329.799 C 608.670 327.284, 613.987 318.577, 612.564 309.677 C 612.221 307.528, 608.083 292.434, 603.370 276.135 C 598.656 259.836, 593.035 240.345, 590.879 232.823 C 586.167 216.383, 584.903 213.227, 581.334 208.985 C 576.447 203.177, 570.638 201.866, 561.816 204.581 M 989.584 241.753 C 984.130 252.064, 972.614 273.775, 963.993 290 C 933.193 347.968, 924.767 364.099, 925.131 364.401 C 926.600 365.616, 938.914 372, 939.790 372 C 940.394 372, 943.912 366.262, 947.607 359.250 C 951.303 352.238, 958.439 338.765, 963.465 329.311 L 972.604 312.121 980.052 316.102 C 988.730 320.741, 995.406 327.191, 996.816 332.296 C 998.378 337.952, 996.756 342.648, 985.908 363.882 C 978.773 377.848, 975.830 384.652, 975.693 387.498 C 975.501 391.480, 975.528 391.511, 982.500 395.217 C 986.350 397.263, 989.731 398.951, 990.013 398.968 C 990.296 398.986, 991.064 396.737, 991.722 393.970 C 992.379 391.204, 996.873 381.435, 1001.708 372.263 C 1012.821 351.182, 1014.284 347.285, 1014.381 338.500 C 1014.461 331.257, 1012.960 326.903, 1008.818 322.367 L 1006.870 320.233 1013.804 319.841 C 1026.336 319.133, 1033.210 312.903, 1043.423 293 C 1050.249 279.699, 1052.407 272.427, 1051.734 264.999 C 1050.917 255.995, 1046.058 248.749, 1036.500 242.285 C 1033.263 240.095, 1000.933 222.998, 1000.040 223.003 C 999.743 223.005, 995.038 231.443, 989.584 241.753 M 450.467 233.277 C 442.246 236.307, 412 251.985, 412 253.216 C 412 254.329, 483.740 393.008, 485.017 394.366 C 485.466 394.843, 489.244 393.349, 493.425 391.041 L 501.018 386.850 492.882 371.175 C 488.407 362.554, 481.376 349.050, 477.256 341.167 C 473.136 333.284, 470.156 326.470, 470.633 326.025 C 471.110 325.580, 474.811 323.498, 478.858 321.399 C 484.486 318.479, 487.683 317.488, 492.452 317.184 C 503.762 316.464, 505.536 318.258, 519.617 344.664 C 529.318 362.856, 534.180 369.524, 536.969 368.464 C 537.811 368.143, 541.334 366.299, 544.798 364.365 L 551.096 360.849 547.798 357.174 C 545.984 355.153, 540.040 345.037, 534.589 334.692 C 520.834 308.590, 514.177 302.076, 501.199 302.022 L 495.898 302 498.325 298.750 C 502.049 293.764, 503.311 288.594, 502.743 280.658 C 502.294 274.379, 501.440 272.013, 495.016 259.260 C 487.099 243.543, 481.340 236.418, 473.781 232.987 C 467.835 230.288, 458.252 230.407, 450.467 233.277 M 1000 260.230 C 995.875 268.056, 989.734 279.759, 986.353 286.237 L 980.206 298.015 989.635 302.696 C 996.704 306.205, 1000.519 307.482, 1004.874 307.797 C 1010.301 308.190, 1010.931 307.999, 1014.460 304.901 C 1016.537 303.077, 1019.248 299.983, 1020.484 298.025 C 1025.224 290.516, 1032.830 274.319, 1033.467 270.377 C 1034.242 265.576, 1032.493 260.613, 1028.879 257.358 C 1026.365 255.094, 1009.980 246, 1008.418 246.001 C 1007.913 246.001, 1004.125 252.404, 1000 260.230 M 447.427 252.395 C 433.123 259.437, 433.041 255.704, 448.148 285 C 455.380 299.025, 461.484 310.716, 461.712 310.980 C 462.555 311.955, 477.639 303.433, 481.734 299.667 C 489.659 292.381, 489.385 286.273, 480.353 268.889 C 473.909 256.487, 470.396 251.890, 465.634 249.630 C 460.366 247.131, 457.119 247.624, 447.427 252.395 M 359 289.077 C 352.675 294.046, 341.546 302.763, 334.268 308.448 L 321.037 318.785 324.854 323.642 C 341.609 344.962, 401.068 421.011, 419.663 444.906 C 419.915 445.230, 429.526 438.226, 433.349 434.934 C 433.815 434.532, 424.815 422.213, 413.349 407.558 C 401.882 392.904, 392.500 380.396, 392.500 379.764 C 392.500 379.131, 397.999 374.313, 404.719 369.057 C 422 355.540, 420.919 357.418, 415.456 350.423 C 412.912 347.165, 410.359 344.632, 409.783 344.794 C 409.207 344.956, 402.765 349.793, 395.467 355.544 C 388.170 361.295, 381.816 365.978, 381.349 365.952 C 380.452 365.902, 346.897 323.191, 346.265 321.294 C 346.062 320.685, 352.959 314.632, 361.592 307.843 C 370.225 301.054, 378.205 294.778, 379.324 293.895 C 381.333 292.312, 381.295 292.206, 376.533 286.145 C 373.877 282.765, 371.434 280.010, 371.102 280.022 C 370.771 280.033, 365.325 284.109, 359 289.077 M 1104.286 297.391 C 1097.257 299.688, 1091.689 303.527, 1084.810 310.819 C 1070.950 325.511, 1068.198 339.241, 1073.702 366.243 C 1077.383 384.304, 1077.569 400.455, 1074.170 406.849 C 1069.121 416.348, 1059.634 423.923, 1052.718 423.978 C 1046.655 424.026, 1038.536 418.782, 1035.411 412.800 C 1033.627 409.386, 1033.599 402.893, 1035.349 398.718 C 1036.090 396.948, 1039.055 392.427, 1041.937 388.671 C 1044.818 384.916, 1047.024 381.741, 1046.838 381.616 C 1046.652 381.491, 1043.976 379.277, 1040.892 376.695 C 1037.808 374.113, 1034.859 372, 1034.338 372 C 1032.728 372, 1023.248 385.218, 1020.406 391.423 C 1016.854 399.183, 1016.101 408.776, 1018.481 415.943 C 1020.917 423.278, 1029.866 432.616, 1039.248 437.612 C 1045.671 441.033, 1047.303 441.476, 1053.521 441.487 C 1063.004 441.504, 1071.527 437.375, 1080.302 428.514 C 1094.668 414.005, 1097.992 398.660, 1092.435 372.500 C 1089.251 357.514, 1088.281 343.166, 1089.974 336.107 C 1092.523 325.482, 1103.284 314.969, 1112.374 314.224 C 1116.893 313.853, 1118.092 314.200, 1122.500 317.152 C 1133.842 324.747, 1134.297 334.998, 1123.876 348.156 L 1120.981 351.812 1127.471 356.977 C 1131.041 359.818, 1134.387 361.879, 1134.907 361.557 C 1136.915 360.316, 1143.968 348.702, 1145.982 343.319 C 1148.809 335.764, 1148.861 325.736, 1146.107 319.509 C 1143.316 313.200, 1133.736 303.905, 1125.996 299.998 C 1118.551 296.240, 1110.696 295.296, 1104.286 297.391 M 708 361.668 C 655.455 365.388, 608.957 377.868, 565 400.049 C 528.275 418.581, 500.135 438.750, 471.152 467.315 C 409.117 528.456, 371.988 606.382, 362.908 694.500 C 361.448 708.666, 361.462 749.311, 362.932 763.500 C 372.146 852.448, 410.235 931.616, 473.108 992.500 C 534.226 1051.684, 611.335 1087.291, 695.230 1095.069 C 712.897 1096.707, 763.919 1095.759, 778 1093.531 C 826.122 1085.917, 860.077 1075.050, 899.485 1054.651 C 1000.099 1002.569, 1073.005 902.600, 1091.396 791.500 C 1095.795 764.928, 1096.395 757.427, 1096.395 729 C 1096.395 700.587, 1095.798 693.110, 1091.401 666.500 C 1081.727 607.944, 1055.879 549.608, 1018.544 502.067 C 976.611 448.672, 920.116 407.527, 856 383.689 C 811.250 367.050, 753.448 358.450, 708 361.668 M 695 393.557 C 652.823 397.659, 610.481 410.402, 572.500 430.423 C 509.261 463.758, 457.790 516.495, 427 579.500 C 374.672 686.580, 381.680 810.957, 445.665 910.750 L 450.955 919 728.765 919 L 1006.576 919 1010.719 912.698 C 1037.361 872.176, 1056.070 821.527, 1062.691 772 C 1065.257 752.804, 1065.259 704.177, 1062.695 685 C 1050.161 591.278, 999.916 508.096, 922.798 453.397 C 885.797 427.152, 840.633 407.630, 796 398.590 C 765.557 392.423, 726.608 390.483, 695 393.557 M 750.573 488.195 C 749.755 490.824, 747.878 514.211, 748.441 514.774 C 749.310 515.643, 750.956 513.028, 756.901 501.329 C 761.001 493.260, 762.060 490.316, 761.298 489.101 C 760.004 487.036, 751.167 486.289, 750.573 488.195 M 696.792 500.250 C 693.024 503.212, 693.690 505.358, 701.554 515.604 C 711.380 528.405, 713.018 528.589, 709.527 516.500 C 708.733 513.750, 707.546 509.326, 706.889 506.669 C 706.232 504.011, 705.056 501.199, 704.276 500.419 C 702.523 498.665, 698.911 498.584, 696.792 500.250 M 728.455 535.455 C 726.039 537.870, 725.286 541.976, 726.621 545.455 C 727.530 547.823, 732.834 550.259, 735.580 549.569 C 744.795 547.256, 743.436 533, 734 533 C 732.052 533, 730.002 533.907, 728.455 535.455 M 616 535.592 C 609.643 538.341, 603 546.148, 603 550.869 C 603 553.282, 609.116 557.059, 630 567.544 C 646.343 575.748, 681.294 590.917, 695.500 595.971 C 700.450 597.732, 705.272 599.579, 706.216 600.074 C 707.723 600.865, 710.166 601.572, 718.595 603.656 C 720.238 604.062, 721.046 603.422, 722.345 600.686 C 724.561 596.016, 724.432 593.268, 721.750 588.020 C 719.211 583.051, 716.185 580.515, 710.442 578.543 C 706.782 577.286, 706.451 576.854, 705.819 572.498 C 704.388 562.638, 697.808 557, 687.733 557 L 682.268 557 680.123 551.117 C 676.264 540.534, 666.384 533.965, 656.545 535.441 C 652.542 536.041, 650.118 537.045, 644.134 540.580 C 641.227 542.297, 641.142 542.281, 637.345 539.315 C 630.496 533.965, 622.847 532.631, 616 535.592 M 831.599 534.982 C 830.004 535.491, 826.993 537.278, 824.908 538.954 C 820.338 542.626, 819.748 542.667, 815.683 539.592 C 811.510 536.436, 804.585 534.655, 799.542 535.442 C 791.280 536.731, 782.761 545.016, 781.051 553.424 C 780.438 556.434, 780.275 556.512, 773.462 557.053 C 769.253 557.388, 765.420 558.318, 763.768 559.407 C 759.983 561.900, 756.958 567.151, 756.167 572.597 C 755.551 576.841, 755.201 577.292, 751.558 578.543 C 743.347 581.362, 739.004 586.951, 739.002 594.703 C 739 599.338, 740.715 604.008, 742.411 603.985 C 744.113 603.962, 754.851 600.483, 755.633 599.701 C 756.018 599.315, 756.936 599, 757.673 599 C 758.832 599, 771.140 594.427, 780.500 590.518 C 803.180 581.047, 812.240 576.926, 833.836 566.254 L 859.173 553.734 858.502 550.117 C 856.525 539.453, 842.430 531.524, 831.599 534.982 M 592.222 561.250 C 591.117 564.138, 588.783 570.325, 587.036 575 C 585.289 579.675, 583.461 584.400, 582.974 585.500 C 582.488 586.600, 580.924 590.425, 579.500 594 C 578.076 597.575, 576.505 601.400, 576.010 602.500 C 574.558 605.723, 571.615 612.491, 564.483 629 C 560.801 637.525, 556.036 648.239, 553.894 652.809 C 551.752 657.379, 550 661.290, 550 661.499 C 550 661.708, 548.033 666.069, 545.628 671.190 C 543.224 676.310, 539.792 683.650, 538.001 687.500 C 527.674 709.707, 511.703 740.734, 500.352 760.642 C 496.859 766.770, 494 772.904, 494 774.273 C 494 783.542, 544.292 813.116, 581.961 825.999 C 587.164 827.779, 592.339 829.574, 593.461 829.988 C 600.297 832.513, 617.139 836.681, 626.033 838.050 C 632.345 839.021, 634.145 838.966, 637.142 837.714 C 640.428 836.341, 640.858 835.664, 642.440 829.360 C 647.326 809.888, 653.819 787.382, 658.555 773.500 C 659.306 771.300, 662.217 762.750, 665.025 754.500 C 667.833 746.250, 670.557 738.600, 671.080 737.500 C 671.603 736.400, 672.442 734.150, 672.945 732.500 C 674.044 728.895, 682.633 706.328, 683.983 703.500 C 684.507 702.400, 686.706 697, 688.869 691.500 C 693.456 679.833, 707.523 647.164, 713.090 635.249 C 715.210 630.711, 717.934 624.636, 719.143 621.749 C 720.352 618.862, 721.765 615.943, 722.283 615.263 C 723.913 613.120, 722.257 611.153, 717.803 609.942 C 703.011 605.922, 681.781 597.774, 654.023 585.463 C 640.228 579.345, 610.071 564.232, 602.500 559.642 C 599.200 557.642, 595.990 556.004, 595.366 556.003 C 594.743 556.001, 593.328 558.362, 592.222 561.250 M 864.325 557.032 C 863.129 557.498, 860.266 559.069, 857.963 560.523 C 843.494 569.657, 792.138 593.170, 767.500 601.942 C 760.900 604.291, 753.925 606.794, 752 607.503 C 750.075 608.212, 746.564 609.314, 744.197 609.952 C 741.831 610.590, 739.653 611.740, 739.359 612.508 C 739.064 613.276, 739.938 616.063, 741.302 618.702 C 742.665 621.341, 744.781 625.975, 746.004 629 C 747.227 632.025, 749.266 636.750, 750.535 639.500 C 758.633 657.053, 760 660.206, 760 661.338 C 760 662.032, 760.387 663.028, 760.860 663.550 C 761.332 664.072, 764.283 670.800, 767.415 678.500 C 770.548 686.200, 773.518 693.400, 774.015 694.500 C 778.294 703.975, 796.014 751.822, 802.128 770.411 C 809.770 793.648, 813.619 806.641, 817.854 823.500 C 821.069 836.299, 820.967 836.088, 824.689 837.643 C 827.663 838.886, 829.450 838.944, 835.380 837.992 C 844.995 836.448, 855.744 834.041, 860 832.479 C 861.925 831.773, 866.425 830.274, 870 829.148 C 895.838 821.014, 927.610 805.958, 949.256 791.592 C 963.015 782.459, 967.340 778.240, 967.221 774.060 C 967.172 772.343, 964.940 767.302, 962.067 762.422 C 959.280 757.686, 957 753.576, 957 753.287 C 957 752.998, 955.461 750.228, 953.581 747.131 C 948.669 739.042, 930.744 702.940, 918.016 675.500 C 916.230 671.650, 913.246 665.220, 911.384 661.212 C 909.523 657.203, 908 653.706, 908 653.441 C 908 653.175, 906.689 650.155, 905.087 646.729 C 903.484 643.303, 901.277 638.475, 900.181 636 C 891.850 617.178, 886.066 603.662, 881.372 592.043 C 878.362 584.594, 875.511 577.600, 875.036 576.500 C 874.561 575.400, 872.951 571.020, 871.458 566.766 C 868.085 557.154, 867.180 555.919, 864.325 557.032 M 530.608 577.415 C 520.348 581.229, 506.750 601.517, 490.672 637 C 484.991 649.538, 476.630 673.235, 474.882 681.750 C 472.550 693.115, 476.107 704.003, 485.341 713.767 C 489.822 718.505, 506.871 731, 508.855 731 C 509.536 731, 517 717.901, 517 716.705 C 517 716.400, 513.593 714.082, 509.430 711.554 C 500.379 706.059, 495.555 701.064, 493.511 695.072 C 490.994 687.695, 491.576 683.596, 497.713 665.500 C 502.976 649.982, 506.980 640.485, 514.707 625.197 C 525.748 603.354, 533.865 594, 541.780 594 C 545.615 594, 556.613 598.131, 562.324 601.717 C 564.427 603.038, 566.881 603.977, 567.778 603.804 C 569.355 603.501, 573.043 595.448, 573.350 591.639 C 573.462 590.246, 571.257 588.640, 564.580 585.254 C 548.122 576.905, 538.162 574.607, 530.608 577.415 M 917.719 576.963 C 915.639 577.366, 912.939 578.142, 911.719 578.689 C 904.184 582.063, 891.164 588.385, 889.301 589.575 L 887.101 590.980 889.643 596.740 C 893.277 604.975, 893.748 605.401, 896.891 603.305 C 902.821 599.349, 910.293 596.019, 915.724 594.911 C 923.352 593.354, 927.383 595.013, 932.885 601.973 C 942.754 614.459, 958.528 647.300, 965.079 669 C 966.158 672.575, 967.579 677.263, 968.236 679.418 C 969.822 684.617, 969.565 692.659, 967.673 697.046 C 965.655 701.724, 957.903 708.814, 950.752 712.521 C 947.591 714.159, 945.004 716.049, 945.002 716.719 C 944.999 718.271, 948.916 725.830, 950.104 726.564 C 950.597 726.869, 951 727.991, 951 729.059 C 951 731.979, 952.433 731.499, 961.443 725.566 C 978.521 714.319, 985.875 704.963, 987.548 692.353 C 988.337 686.402, 985.089 672.228, 980.097 659.841 C 979.578 658.553, 977.472 653.225, 975.418 648 C 964.445 620.093, 947.682 590.291, 938.324 582.054 C 931.952 576.445, 926.870 575.190, 917.719 576.963 M 531.500 584.659 C 527.104 586.972, 523 591.105, 523 593.218 C 523 596.384, 525.807 596.377, 529.423 593.202 C 531.309 591.546, 534.276 589.879, 536.018 589.496 C 540.241 588.568, 547.589 589.750, 552.187 592.095 C 554.240 593.143, 557.063 594, 558.460 594 C 562.258 594, 561.819 590.488, 557.750 588.319 C 547.881 583.058, 537.336 581.588, 531.500 584.659 M 912.500 584.881 C 904.709 587.493, 901 589.807, 901 592.057 C 901 595.172, 903.359 595.358, 908.680 592.662 C 918.101 587.888, 927.040 588.220, 932.027 593.529 C 934.527 596.189, 937.493 596.770, 938.262 594.750 C 939.255 592.139, 936.915 588.991, 931.800 586.058 C 925.665 582.540, 920.436 582.221, 912.500 584.881 M 591.556 586.910 C 591.247 587.410, 591.247 588.480, 591.557 589.288 C 592.130 590.780, 613.742 602.940, 626.500 608.948 C 638.505 614.601, 651.738 620.629, 657 622.840 C 658.375 623.418, 661.525 624.765, 664 625.833 C 666.475 626.901, 673 629.421, 678.500 631.434 C 692.585 636.589, 693.983 637.164, 694.513 638.022 C 694.772 638.440, 694.084 640.817, 692.984 643.302 L 690.985 647.822 685.743 645.846 C 677.927 642.900, 671.242 641.083, 664.135 639.971 C 660.634 639.423, 657.394 638.743, 656.935 638.460 C 656.476 638.176, 652.140 637.516, 647.300 636.993 C 637.070 635.889, 618.706 632.816, 611.500 631.004 C 604.659 629.284, 594.998 625.720, 585.312 621.344 C 582.458 620.055, 579.758 619, 579.310 619 C 578.361 619, 573.993 626.949, 573.997 628.669 C 573.999 629.312, 573.359 631.112, 572.577 632.669 C 571.794 634.226, 568.823 641.125, 565.975 648 C 563.127 654.875, 560.192 661.850, 559.451 663.500 C 556.723 669.582, 553.151 677.696, 549.986 685 C 548.199 689.125, 545.282 695.650, 543.504 699.500 C 541.726 703.350, 539.342 708.525, 538.206 711 C 537.070 713.475, 532.509 723.358, 528.070 732.961 C 523.632 742.565, 520 751.451, 520 752.708 C 520 757.279, 532.109 767.333, 547.500 775.542 C 558.999 781.675, 582.346 793, 583.490 793 C 583.782 793, 585.929 793.855, 588.261 794.900 C 600.755 800.500, 620.691 805.982, 628.500 805.966 C 635.693 805.951, 637.078 804.347, 641.422 791 C 644.956 780.140, 651.247 761.887, 652.967 757.500 C 653.398 756.400, 654.293 754.162, 654.956 752.526 C 655.619 750.890, 657.973 744.590, 660.187 738.526 C 662.401 732.462, 664.794 726.150, 665.506 724.500 C 667.458 719.974, 675.043 701.111, 676.966 696 C 678.732 691.304, 688.893 667.427, 692.072 660.500 C 693.082 658.300, 695.932 651.787, 698.407 646.027 C 703.526 634.108, 703.388 633.329, 695.736 631.048 C 693.406 630.353, 689.700 629.108, 687.500 628.280 C 685.300 627.452, 681.925 626.189, 680 625.473 C 669.945 621.735, 662.898 618.938, 657.500 616.546 C 654.200 615.083, 650.600 613.492, 649.500 613.011 C 641.007 609.295, 618.347 598.066, 608.350 592.619 C 596.694 586.270, 592.775 584.937, 591.556 586.910 M 857.500 590.591 C 850.985 594.318, 820.499 609.509, 812.500 613.014 C 803.449 616.981, 800.662 618.168, 795.919 620.079 C 785.956 624.093, 780.563 626.082, 771.905 628.933 C 761.476 632.368, 759 633.631, 759 635.516 C 759 636.311, 760.737 640.683, 762.859 645.231 C 768.077 656.411, 788.414 704.187, 792.558 715 C 793.296 716.925, 796.222 724.575, 799.061 732 C 801.900 739.425, 804.847 746.918, 805.611 748.651 C 806.375 750.384, 807 752.303, 807 752.915 C 807 753.527, 807.447 754.809, 807.993 755.764 C 809.068 757.643, 813.798 771.289, 820.125 790.762 C 824.981 805.711, 825.880 806.568, 835.791 805.687 C 839.481 805.359, 843.850 804.658, 845.500 804.128 C 847.150 803.598, 850.975 802.408, 854 801.483 C 883.459 792.472, 924.996 771.853, 936.887 760.338 C 943.422 754.010, 943.447 754.367, 935.207 737 C 931.944 730.125, 928.272 722.250, 927.045 719.500 C 925.818 716.750, 923.774 712.250, 922.502 709.500 C 921.230 706.750, 918.996 701.800, 917.538 698.500 C 916.079 695.200, 914.453 691.600, 913.925 690.500 C 913.396 689.400, 906.743 674.100, 899.141 656.500 C 888.791 632.540, 884.848 624.409, 883.448 624.136 C 882.420 623.936, 880.211 624.442, 878.539 625.260 C 871.248 628.830, 861.028 631.949, 850 633.970 C 846.425 634.625, 841.340 635.574, 838.701 636.080 C 836.061 636.586, 830.886 637.020, 827.201 637.044 C 823.515 637.068, 817.237 637.518, 813.250 638.044 C 809.263 638.570, 802.962 639.405, 799.250 639.901 C 792.152 640.848, 784.439 642.771, 777.124 645.417 C 771.096 647.598, 770.601 647.483, 768.685 643.466 C 765.893 637.612, 766.474 636.782, 775 634.450 C 778.768 633.420, 799.639 625.184, 806.820 621.895 C 810.296 620.303, 813.306 619, 813.510 619 C 814.074 619, 832.714 610.254, 839.500 606.806 C 865.896 593.392, 871.313 589.979, 870.321 587.394 C 869.390 584.967, 865.740 585.878, 857.500 590.591 M 517.709 597.624 C 516.464 598.869, 516.948 601.766, 518.500 602.362 C 520.956 603.304, 523.131 601.920, 522.803 599.623 C 522.503 597.520, 519.135 596.199, 517.709 597.624 M 938.709 597.624 C 937.266 599.068, 938.065 601.886, 940.101 602.532 C 942.629 603.335, 944.318 601.898, 943.834 599.356 C 943.476 597.482, 940.019 596.314, 938.709 597.624 M 580.071 630.384 C 578.932 632.228, 578 634.067, 578 634.472 C 578 635.399, 555.030 689.142, 554.054 690.500 C 553.659 691.050, 552.730 693.075, 551.991 695 C 550.672 698.431, 547.489 705.503, 540.500 720.522 C 538.575 724.659, 537 728.255, 537 728.514 C 537 728.773, 534.750 733.535, 532 739.098 C 529.250 744.660, 527 750.200, 527 751.409 C 527 755.052, 534.666 761.139, 550.532 770.095 C 561.108 776.065, 580.288 785.046, 593 789.980 C 597.675 791.795, 602.400 793.635, 603.500 794.069 C 608.474 796.033, 620.001 798.956, 625.084 799.544 C 630.913 800.217, 634 798.787, 634 795.415 C 634 793.926, 641.268 771.687, 645.573 760 C 651.800 743.098, 657.371 728.151, 658.059 726.500 C 658.518 725.400, 659.776 722.250, 660.856 719.500 C 663.044 713.925, 669.670 697.598, 671.001 694.500 C 671.474 693.400, 673.743 688, 676.043 682.500 C 680.483 671.886, 681.332 669.905, 685.415 660.626 C 686.837 657.395, 688 654.594, 688 654.401 C 688 653.787, 682.301 651.078, 677.828 649.566 C 671.208 647.329, 656.804 644.400, 643.500 642.586 C 614.765 638.669, 602.425 635.677, 585.821 628.601 L 582.143 627.033 580.071 630.384 M 873 633.901 C 859.126 638.936, 844.005 641.604, 818.500 643.517 C 801.211 644.814, 777.744 650.194, 775.010 653.487 C 773.975 654.736, 777.584 664.439, 786.545 684.500 C 787.282 686.150, 790.400 693.800, 793.473 701.500 C 796.546 709.200, 799.450 716.400, 799.927 717.500 C 806.521 732.716, 825.498 785.677, 827.403 794.180 C 828.444 798.830, 830.724 800.263, 835.911 799.530 C 840.760 798.844, 854.123 795.467, 857.500 794.074 C 858.600 793.620, 864 791.539, 869.500 789.449 C 896.256 779.282, 927.789 762.293, 934.138 754.624 C 936.011 752.361, 935.883 751.968, 927.662 734.809 C 921.043 720.993, 916.389 710.864, 913.428 703.830 C 911.976 700.380, 909.450 694.619, 907.814 691.029 C 906.178 687.438, 904.449 683.600, 903.972 682.500 C 903.496 681.400, 901.803 677.575, 900.211 674 C 898.619 670.425, 893.784 659.288, 889.466 649.250 C 885.148 639.212, 881.365 631.040, 881.058 631.089 C 880.751 631.138, 877.125 632.404, 873 633.901 M 648.039 674.189 C 645.343 677.083, 645.466 679.557, 648.455 682.545 C 651.439 685.530, 652.016 685.562, 655.365 682.927 C 658.532 680.437, 658.791 676.791, 656 674 C 653.397 671.397, 650.577 671.464, 648.039 674.189 M 805.986 673.810 C 804.608 674.926, 803.750 676.726, 803.750 678.500 C 803.750 681.388, 806.932 685, 809.476 685 C 811.861 685, 816 680.876, 816 678.500 C 816 676.124, 811.861 672, 809.476 672 C 808.786 672, 807.215 672.815, 805.986 673.810 M 615.551 698.344 C 612.233 702.695, 612.329 705.483, 615.923 709.077 C 619.487 712.641, 624.527 713.021, 627.799 709.972 C 633.872 704.315, 630.179 695, 621.862 695 C 618.773 695, 617.646 695.597, 615.551 698.344 M 834.789 696.363 C 832.357 698.211, 830.950 702.502, 831.642 705.961 C 832.788 711.689, 840.348 713.874, 845.365 709.927 C 848.942 707.114, 849.111 700.393, 845.686 697.174 C 843.062 694.710, 837.510 694.297, 834.789 696.363 M 578.200 721.200 C 576.246 723.154, 576.717 728.778, 578.934 729.965 C 584.994 733.208, 591.159 726.302, 586.429 721.571 C 584.569 719.712, 579.899 719.501, 578.200 721.200 M 875.200 721.200 C 874.540 721.860, 874 723.895, 874 725.721 C 874 729.583, 877.171 731.676, 881.411 730.612 C 884.467 729.845, 885.763 725.970, 884.148 722.426 C 883.301 720.567, 882.267 720, 879.721 720 C 877.895 720, 875.860 720.540, 875.200 721.200 M 504.961 769.547 C 503.106 771.782, 504.348 773.463, 512.193 779.343 C 523.708 787.973, 536.118 795.129, 538.987 794.794 C 543.637 794.250, 542.107 790.927, 535.500 787.218 C 527.410 782.677, 519.440 777.390, 514 772.955 C 508.471 768.447, 506.493 767.701, 504.961 769.547 M 944.500 775.082 C 940.100 778.423, 932.788 783.231, 928.250 785.767 C 919.955 790.403, 917.864 793.243, 921.673 794.705 C 923.894 795.557, 935.374 789.582, 945.500 782.304 C 955.961 774.786, 957.250 773.539, 956.831 771.341 C 956.165 767.851, 952.600 768.932, 944.500 775.082 M 589.667 813.667 C 589.300 814.033, 589 815.076, 589 815.983 C 589 819.785, 621.040 828.836, 631 827.847 C 633.692 827.580, 634.571 827, 634.808 825.336 C 635.152 822.925, 634.258 822.517, 626.500 821.536 C 620.500 820.778, 608.287 818.139, 605.500 816.998 C 601.982 815.558, 593.172 813, 591.729 813 C 590.961 813, 590.033 813.300, 589.667 813.667 M 866.806 813.528 C 865.807 814.527, 841.492 820.795, 836 821.469 C 827.841 822.471, 827 822.854, 827 825.567 C 827 827.757, 827.418 828, 831.190 828 C 837.282 828, 845.947 826.222, 859 822.295 C 871.231 818.616, 873.456 817.353, 872.430 814.678 C 871.831 813.118, 867.999 812.334, 866.806 813.528 M 279 914.635 C 246.825 931.412, 215.213 947.829, 208.750 951.119 C 202.287 954.409, 197 957.574, 197 958.154 C 197 959.674, 204.118 973, 204.930 973 C 205.305 973, 219.055 966.025, 235.484 957.500 C 251.913 948.975, 265.613 942.002, 265.928 942.004 C 266.242 942.006, 270.246 949.206, 274.825 958.004 C 279.403 966.802, 283.356 974, 283.609 974 C 283.862 974, 287.116 972.338, 290.840 970.306 L 297.612 966.612 289.282 950.393 L 280.952 934.174 286.226 931.224 C 289.127 929.601, 300.754 923.504, 312.063 917.675 L 332.627 907.076 342.970 927.038 C 348.659 938.017, 353.706 947, 354.185 947 C 355.459 947, 366.766 941.188, 367.359 940.229 C 367.963 939.251, 339.677 884.697, 338.393 884.364 C 337.902 884.237, 311.175 897.859, 279 914.635 M 1119.672 896.108 C 1112.545 899.868, 1107.590 906.421, 1097.100 925.960 C 1091.545 936.306, 1087 945.009, 1087 945.302 C 1087 946.161, 1227.916 1021.456, 1228.412 1020.862 C 1229.870 1019.118, 1248.277 983.494, 1249.462 980.124 C 1250.308 977.718, 1251 972.518, 1251 968.571 C 1251 954.636, 1243.794 945.985, 1223.243 935.250 C 1203.399 924.885, 1193.141 923.675, 1182.992 930.505 L 1178 933.865 1178 929.129 C 1178 919.056, 1171.392 910.865, 1156.588 902.586 C 1141.166 893.962, 1128.089 891.667, 1119.672 896.108 M 1126.500 913.365 C 1124.850 914.124, 1122.536 915.815, 1121.358 917.123 C 1118.017 920.831, 1109.640 937.052, 1110.621 937.913 C 1111.772 938.923, 1153.235 961.116, 1154.377 961.333 C 1155.693 961.584, 1162.789 948.265, 1164.622 942.102 C 1167.721 931.684, 1163.780 926.285, 1146.809 917.701 C 1136.424 912.448, 1131.008 911.292, 1126.500 913.365 M 1186.280 944.912 C 1184.509 946.024, 1181.654 948.861, 1179.935 951.217 C 1175.526 957.260, 1169.691 969.103, 1170.675 970.012 C 1172.108 971.335, 1220.799 997, 1221.877 997 C 1223.664 997, 1234 975.156, 1234 971.379 C 1234 965.640, 1230.542 960.307, 1224.138 956.168 C 1205.849 944.347, 1193.178 940.580, 1186.280 944.912 M 1074.108 962.250 L 1068.986 968.500 1073.173 972 C 1077.824 975.887, 1113.364 1005.071, 1145.244 1031.179 C 1156.652 1040.522, 1167.551 1049.994, 1169.463 1052.228 C 1177.789 1061.955, 1174.755 1074.811, 1162.708 1080.852 C 1158.399 1083.012, 1157.609 1083.106, 1152.997 1081.999 C 1146.590 1080.462, 1144.499 1079.006, 1121.532 1060.086 C 1063.253 1012.077, 1045.753 997.919, 1045.027 998.194 C 1043.781 998.667, 1035 1009.741, 1035 1010.840 C 1035 1011.871, 1042.592 1018.253, 1095.323 1061.550 C 1113.375 1076.372, 1130.581 1090.153, 1133.559 1092.173 C 1145.605 1100.346, 1158.523 1102.297, 1168.826 1097.501 C 1175.730 1094.287, 1184.135 1085.502, 1188.195 1077.256 C 1193.630 1066.216, 1192.053 1054.652, 1183.530 1043.041 C 1179.810 1037.973, 1177.097 1035.626, 1135.500 1001.480 C 1088.482 962.885, 1080.025 956, 1079.632 956 C 1079.411 956, 1076.925 958.813, 1074.108 962.250 M 358.836 961.858 C 355.721 962.888, 351.446 964.777, 349.336 966.056 C 342.364 970.284, 273.487 1024.748, 269.115 1029.491 C 262.678 1036.474, 258.750 1045.619, 258.750 1053.620 C 258.750 1059.064, 259.334 1061.292, 262.375 1067.445 C 266.665 1076.125, 274.655 1084.685, 281.623 1088.064 C 290.674 1092.454, 304.401 1091.466, 314 1085.733 C 315.925 1084.583, 329.367 1074.386, 343.872 1063.071 C 358.376 1051.757, 374.576 1039.136, 379.872 1035.024 C 392.066 1025.556, 397.716 1019.785, 401.500 1012.933 C 404.243 1007.965, 404.500 1006.686, 404.495 998 C 404.491 989.601, 404.175 987.901, 401.772 983.336 C 397.978 976.129, 388.614 966.345, 382.576 963.281 C 375.805 959.844, 366.600 959.292, 358.836 961.858 M 652.741 964.377 C 650.673 965.143, 648.239 966.385, 647.332 967.135 C 644.285 969.657, 642.045 976.244, 642.022 982.750 L 642 989 646 989 L 650 989 650 983.450 C 650 974.704, 652.636 971, 658.859 971 C 667.321 971, 670.593 983.036, 665.074 993.856 C 663.994 995.973, 659.596 1001.759, 655.302 1006.714 C 645.199 1018.370, 642.670 1023.384, 642.169 1032.750 L 641.781 1040 658.391 1040 L 675 1040 675 1036.531 L 675 1033.062 662.762 1032.781 C 651.863 1032.531, 650.486 1032.302, 650.176 1030.685 C 649.569 1027.516, 654.700 1018.763, 662.011 1010.500 C 672.505 998.640, 675.263 993.333, 675.747 984.071 C 676.084 977.622, 675.799 975.837, 673.821 972.023 C 672.545 969.560, 670.111 966.749, 668.413 965.776 C 664.109 963.309, 657.267 962.698, 652.741 964.377 M 701.968 963.885 C 697.676 965.284, 694.979 967.353, 692.693 971 C 690.574 974.383, 690.500 975.423, 690.500 1002 C 690.500 1027.702, 690.631 1029.722, 692.500 1032.895 C 696.035 1038.896, 699.198 1040.500, 707.500 1040.500 C 716.225 1040.500, 719.250 1038.807, 722.790 1031.941 C 725.033 1027.593, 725.075 1026.945, 724.790 1001 C 724.514 975.770, 724.395 974.332, 722.319 971 C 721.120 969.075, 718.766 966.692, 717.089 965.705 C 713.572 963.635, 705.660 962.683, 701.968 963.885 M 756.546 966.912 C 754.575 970.723, 750.331 974, 747.365 974 C 745.329 974, 745 974.487, 745 977.500 C 745 981.486, 746.085 981.827, 751.532 979.551 L 755 978.102 755 1009.051 L 755 1040 759.500 1040 L 764 1040 764 1002 L 764 964 761.026 964 C 758.752 964, 757.697 964.686, 756.546 966.912 M 783 968 L 783 972 795.500 972 C 803.145 972, 808 972.387, 808 972.997 C 808 973.782, 794.672 1021.248, 790.098 1036.750 L 789.140 1040 793.424 1040 L 797.709 1040 799.818 1032.750 C 810.753 995.157, 817 971.686, 817 968.193 L 817 964 800 964 L 783 964 783 968 M 702.261 972.529 C 698.764 974.979, 698.012 980.213, 698.006 1002.125 C 697.999 1024.963, 698.324 1027.897, 701.198 1030.982 C 704.211 1034.217, 711.560 1033.492, 714.399 1029.680 C 716.341 1027.072, 716.525 1025.333, 716.831 1006.680 C 717.233 982.175, 716.666 976.575, 713.457 973.366 C 710.687 970.596, 705.568 970.214, 702.261 972.529 M 359.500 980.823 C 354.411 983.660, 290.687 1033.256, 283.631 1039.872 C 273.657 1049.224, 273.725 1060.099, 283.815 1069.214 C 288.568 1073.508, 292.366 1074.506, 298.166 1072.987 C 304.061 1071.442, 306.468 1069.767, 335.876 1046.747 C 372.838 1017.815, 375.048 1016.046, 379.833 1011.561 C 389.805 1002.214, 390.585 992.762, 382.136 983.661 C 376.103 977.163, 367.910 976.135, 359.500 980.823 M 419.844 1026.394 C 408.743 1030.359, 406.028 1033.033, 368.129 1077.337 C 336.093 1114.788, 333.954 1118.079, 333.201 1131.081 C 332.775 1138.454, 332.970 1139.496, 335.888 1145.425 C 339.714 1153.195, 349 1162.191, 356.981 1165.858 C 368.375 1171.093, 381.149 1169.203, 392.009 1160.675 C 398.183 1155.827, 454.977 1090.247, 460.249 1081.879 C 465.558 1073.451, 466.501 1070.295, 466.488 1061 C 466.474 1050.769, 464.633 1046.612, 456.210 1037.781 C 448.354 1029.545, 439.011 1024.985, 430.116 1025.044 C 426.477 1025.068, 421.855 1025.675, 419.844 1026.394 M 424.422 1043.418 C 419.058 1045.754, 414.467 1050.600, 384.323 1085.749 C 355.299 1119.590, 350.002 1126.889, 350.032 1133 C 350.052 1137.145, 353.506 1143.447, 357.621 1146.845 C 365.398 1153.269, 373.114 1153.068, 381.399 1146.227 C 386.078 1142.363, 441.509 1078.259, 445.557 1072.030 C 446.819 1070.088, 448.370 1066.520, 449.004 1064.101 C 450.500 1058.396, 448.375 1052.414, 443.258 1047.922 C 436.750 1042.208, 430.587 1040.734, 424.422 1043.418 M 986.668 1051.617 C 980.674 1056.592, 980.059 1057.420, 981.285 1058.867 C 982.045 1059.765, 992.286 1071.975, 1004.042 1086 C 1083.005 1180.204, 1083.020 1180.221, 1084.841 1178.785 C 1087.331 1176.822, 1111.285 1156.619, 1122.262 1147.224 L 1132.024 1138.869 1126.882 1132.958 C 1123.542 1129.118, 1121.291 1127.301, 1120.458 1127.773 C 1119.753 1128.173, 1112.499 1134.130, 1104.338 1141.012 C 1096.177 1147.894, 1088.779 1154.081, 1087.897 1154.762 C 1086.149 1156.113, 1087.422 1157.578, 1005.761 1060.250 C 999.185 1052.412, 993.722 1046, 993.620 1046 C 993.518 1046, 990.390 1048.528, 986.668 1051.617 M 482.686 1066.713 C 477.955 1074.224, 476.955 1076.724, 478.276 1077.736 C 478.949 1078.251, 484.584 1081.516, 490.797 1084.992 C 499.354 1089.778, 501.949 1091.691, 501.493 1092.878 C 501.162 1093.741, 485.325 1121.683, 466.299 1154.973 C 447.273 1188.263, 431.537 1215.812, 431.330 1216.192 C 430.770 1217.222, 444.936 1225.244, 446.315 1224.678 C 446.967 1224.411, 463.250 1196.495, 482.500 1162.643 C 501.750 1128.790, 517.795 1101.072, 518.155 1101.047 C 518.515 1101.021, 524.310 1104.141, 531.034 1107.979 C 537.757 1111.818, 543.538 1114.785, 543.881 1114.574 C 544.964 1113.904, 551.496 1101.161, 550.987 1100.710 C 550.719 1100.473, 536.100 1092.058, 518.500 1082.011 C 500.900 1071.963, 486.179 1063.559, 485.786 1063.334 C 485.393 1063.110, 483.998 1064.630, 482.686 1066.713 M 951.845 1076.074 C 940.288 1077.894, 926.191 1087.953, 921.819 1097.500 C 918.807 1104.078, 918.691 1115.977, 921.559 1124 C 923.173 1128.512, 950.683 1178.011, 967.375 1206.434 C 979.689 1227.404, 996.480 1234.218, 1014.614 1225.606 C 1023.585 1221.346, 1031.505 1214.184, 1034.637 1207.500 C 1037.615 1201.147, 1037.820 1190.811, 1035.139 1182.199 C 1033.292 1176.266, 1021.312 1154, 1019.966 1154 C 1018.733 1154, 1006 1161.344, 1006 1162.055 C 1006 1162.431, 1009.038 1168.078, 1012.750 1174.604 C 1019.472 1186.419, 1019.500 1186.502, 1019.500 1194.169 C 1019.500 1201.326, 1019.293 1202.085, 1016.560 1204.937 C 1007.914 1213.962, 995.770 1214.197, 988.123 1205.487 C 986.534 1203.678, 977.242 1188.090, 967.475 1170.849 C 957.707 1153.607, 948.233 1137.013, 946.420 1133.973 C 944.608 1130.932, 941.748 1125.532, 940.064 1121.973 C 934.394 1109.989, 936.717 1100.345, 946.500 1095.246 C 958.063 1089.220, 966.549 1093.485, 976.057 1110.100 C 978.859 1114.995, 981.400 1119, 981.706 1119 C 982.011 1119, 985.362 1117.325, 989.152 1115.278 C 993.842 1112.745, 995.871 1111.105, 995.503 1110.146 C 995.205 1109.371, 992.543 1104.627, 989.587 1099.605 C 979.177 1081.916, 966.186 1073.817, 951.845 1076.074 M 557.484 1105.250 C 557.234 1105.938, 551.367 1123.150, 544.445 1143.500 C 537.523 1163.850, 528.714 1189.725, 524.869 1201 C 508.514 1248.957, 506.838 1254.134, 507.290 1255.287 C 507.552 1255.954, 517.156 1259.634, 528.633 1263.465 C 547.006 1269.598, 550.396 1270.431, 557 1270.440 C 566.369 1270.452, 572.102 1267.905, 578.354 1260.952 C 583.433 1255.302, 585.462 1251.293, 590.521 1236.911 C 597.135 1218.110, 596.479 1204.666, 588.543 1196.384 L 584.440 1192.101 588.470 1191.431 C 600.222 1189.475, 607.106 1181.105, 613.413 1161.100 C 617.054 1149.555, 617.641 1142.718, 615.597 1135.685 C 612.313 1124.391, 605.778 1119.994, 578.278 1110.580 C 567.706 1106.961, 558.804 1104, 558.497 1104 C 558.189 1104, 557.733 1104.563, 557.484 1105.250 M 568.923 1127.669 C 568.324 1129.226, 564.533 1140.253, 560.498 1152.174 L 553.162 1173.848 556.831 1175.313 C 564.533 1178.390, 571.578 1180, 577.336 1180 C 582.975 1180, 583.517 1179.782, 587.005 1176.116 C 589.735 1173.245, 591.648 1169.524, 594.331 1161.866 C 601.726 1140.757, 599.570 1135.096, 581.824 1129.024 C 576.696 1127.270, 571.940 1125.610, 571.256 1125.336 C 570.550 1125.053, 569.542 1126.060, 568.923 1127.669 M 807.273 1131.781 C 801.814 1133.145, 801.105 1133.594, 801.525 1135.419 C 802.096 1137.903, 829.421 1249.685, 835.002 1272.370 C 837.149 1281.098, 839.163 1288.496, 839.476 1288.810 C 839.949 1289.283, 899.759 1275.242, 900.851 1274.402 C 901.044 1274.253, 900.399 1270.727, 899.418 1266.566 C 898.282 1261.749, 897.142 1259, 896.281 1259 C 895.536 1259, 885.960 1261.250, 875 1264 C 853.169 1269.478, 852 1269.660, 852 1267.578 C 852 1266.796, 847.040 1245.984, 840.979 1221.328 C 834.917 1196.673, 827.388 1166.037, 824.248 1153.250 C 817.734 1126.728, 819.343 1128.763, 807.273 1131.781 M 662.683 1134.750 C 662.444 1135.162, 652.463 1165.650, 640.502 1202.500 C 628.542 1239.350, 617.380 1273.672, 615.699 1278.771 C 613.828 1284.448, 613.003 1288.394, 613.571 1288.948 C 614.082 1289.446, 617.732 1290.166, 621.682 1290.549 L 628.864 1291.245 633.552 1276.373 C 636.131 1268.193, 638.524 1261.185, 638.871 1260.800 C 639.482 1260.120, 677.945 1264.612, 678.796 1265.462 C 679.029 1265.696, 679.691 1273.085, 680.266 1281.882 L 681.312 1297.877 684.906 1298.397 C 686.883 1298.683, 690.900 1299.208, 693.833 1299.564 L 699.167 1300.211 698.546 1291.355 C 698.205 1286.485, 697.280 1272.150, 696.490 1259.500 C 695.700 1246.850, 693.940 1219.175, 692.579 1198 C 691.219 1176.825, 689.799 1154.438, 689.424 1148.250 C 688.987 1141.030, 688.341 1136.993, 687.621 1136.981 C 687.005 1136.970, 682 1136.309, 676.500 1135.512 C 664.854 1133.825, 663.270 1133.738, 662.683 1134.750 M 734.626 1138.744 L 727.751 1139.097 728.372 1145.799 C 728.714 1149.484, 729.901 1166.450, 731.011 1183.500 C 734.342 1234.672, 737.934 1287.101, 738.561 1293.710 C 739.136 1299.768, 739.216 1299.909, 741.825 1299.494 C 743.296 1299.259, 757.438 1298.302, 773.250 1297.367 L 802 1295.667 802 1287.892 C 802 1283.616, 801.610 1279.877, 801.133 1279.582 C 800.656 1279.287, 791.544 1279.708, 780.883 1280.516 C 770.222 1281.324, 760.118 1281.989, 758.429 1281.993 L 755.358 1282 754.153 1261.750 C 753.001 1242.389, 747.735 1163.546, 746.439 1146.250 C 745.863 1138.570, 745.671 1138.014, 743.660 1138.196 C 742.472 1138.304, 738.407 1138.550, 734.626 1138.744 M 663.755 1181.331 C 659.496 1194.624, 653.144 1214.349, 649.639 1225.164 L 643.268 1244.828 646.384 1245.367 C 656.181 1247.064, 677.071 1249.262, 677.674 1248.659 C 678.447 1247.886, 673.097 1161.548, 672.108 1158.831 C 671.750 1157.849, 668.314 1167.106, 663.755 1181.331 M 538.181 1217.491 C 533.056 1232.604, 529.123 1245.390" stroke="none" fill="#f9f9fa" fill-rule="evenodd"/><path d="M 693 0.652 C 647.006 3.741, 623.766 6.546, 590 13.087 C 412.449 47.481, 255.349 146.035, 145.400 292 C 100.262 351.923, 63.620 421.137, 39.519 492 C 18.635 553.406, 7.524 608.059, 1.807 677.500 C -0.070 700.304, 0.233 762.150, 2.342 786.500 C 9.873 873.465, 29.119 949.094, 63.290 1026 C 113.460 1138.916, 194.537 1239.824, 295.104 1314.517 C 397.561 1390.613, 519.355 1438.850, 644.582 1452.926 C 676.776 1456.546, 692.967 1457.399, 729.500 1457.400 C 785.240 1457.402, 828.177 1452.931, 882.667 1441.450 C 916.536 1434.314, 944.358 1426.191, 983.500 1412.010 C 1021.741 1398.156, 1064.936 1377.442, 1102 1355.184 C 1196.862 1298.216, 1275.912 1222.673, 1337.140 1130.474 C 1354.164 1104.840, 1364.949 1086.224, 1379.997 1056.500 C 1415.243 986.879, 1437.355 917.759, 1449.418 839.500 C 1453.097 815.631, 1456.981 775.540, 1456.993 761.309 C 1456.997 756.804, 1457.450 752.840, 1458 752.500 C 1458.622 752.116, 1459 742.803, 1459 727.882 C 1459 712.137, 1458.656 704.095, 1458 704.500 C 1457.368 704.890, 1456.999 702.426, 1456.996 697.809 C 1456.994 693.789, 1456.535 684.200, 1455.977 676.500 C 1450.066 594.979, 1430.871 515.471, 1399.483 442.500 C 1391.934 424.950, 1390.032 420.882, 1380.375 401.634 C 1342.792 326.729, 1294.025 260.858, 1232.432 201.803 C 1107.392 81.916, 944.338 11.025, 770.639 1.028 C 754.683 0.110, 704.679 -0.133, 693 0.652 M 698.201 73.017 C 591.677 78.339, 489.958 108.446, 399 161.576 C 311.862 212.474, 238.249 281.921, 182.314 366 C 121.864 456.865, 87.212 554.746, 75.284 668.327 C 72.852 691.485, 72.852 766.515, 75.284 789.673 C 86.108 892.740, 115.291 981.664, 166.298 1067 C 222.515 1161.054, 305.972 1243.118, 401 1297.785 C 419.401 1308.371, 454.213 1325.765, 473 1333.759 C 536.401 1360.740, 606.143 1377.860, 675.490 1383.465 C 711.233 1386.354, 777.401 1385.109, 808.486 1380.962 C 883.578 1370.944, 944.242 1353.414, 1009.305 1322.934 C 1107.217 1277.065, 1194.981 1204.564, 1259.202 1116.500 C 1329.604 1019.960, 1370.537 912.182, 1383.204 790 C 1384.986 772.812, 1384.986 685.188, 1383.204 668 C 1376.557 603.882, 1362.265 544.114, 1340.312 488.626 C 1255.900 275.271, 1066.720 120.928, 842 82.077 C 796.109 74.143, 742.843 70.787, 698.201 73.017 M 703 117.575 C 700.525 117.781, 691.525 118.440, 683 119.040 C 592.554 125.402, 502.535 153.057, 423.584 198.734 C 359.973 235.537, 306.615 280.572, 258.580 338 C 192.449 417.062, 147.158 513.077, 128.153 614.500 C 120.405 655.846, 117.657 686.159, 117.680 730 C 117.724 810.617, 132.284 885.209, 162.478 959.500 C 231.301 1128.836, 375.546 1260.726, 549.798 1313.647 C 677.300 1352.370, 817.386 1348.487, 940 1302.831 C 972.926 1290.571, 1013.964 1271.036, 1042 1254.278 C 1183.102 1169.935, 1285.753 1030.725, 1323.484 872.542 C 1348.689 766.873, 1345.749 656.507, 1314.986 553.500 C 1266.883 392.433, 1154.030 257.946, 1003.350 182.123 C 935.805 148.134, 865.723 127.815, 789 119.976 C 769.691 118.003, 715.888 116.501, 703 117.575 M 707.500 164.630 C 706.400 164.827, 690.697 166.331, 672.605 167.972 C 654.513 169.613, 639.527 171.139, 639.303 171.363 C 639.079 171.588, 639.211 175.253, 639.597 179.508 L 640.298 187.246 646.399 186.634 C 664.203 184.850, 670 184.699, 670 186.019 C 670 191.819, 682.835 327.168, 683.442 327.776 C 683.682 328.016, 687.619 327.827, 692.189 327.356 C 700.241 326.527, 700.493 326.422, 700.291 324 C 698.037 296.964, 695.431 267.345, 693.518 247 C 689.146 200.498, 687.772 183.895, 688.255 183.412 C 688.518 183.149, 694.849 182.367, 702.325 181.675 C 709.801 180.982, 716.185 180.149, 716.511 179.822 C 716.837 179.496, 716.794 175.803, 716.414 171.615 L 715.724 164 712.612 164.136 C 710.900 164.211, 708.600 164.433, 707.500 164.630 M 762.577 166.237 C 762.320 167.481, 760.940 180.200, 759.512 194.500 C 756.221 227.442, 750.600 282.117, 748.101 305.500 C 747.043 315.400, 746.275 323.600, 746.394 323.722 C 746.818 324.156, 763.506 325.828, 763.862 325.472 C 764.061 325.273, 765.795 309.448, 767.715 290.305 C 769.635 271.162, 771.504 255.178, 771.869 254.784 C 772.234 254.390, 780.850 254.951, 791.016 256.031 C 801.182 257.111, 809.679 257.996, 809.898 257.997 C 810.571 258.002, 809.102 275.268, 806.069 303 C 804.475 317.575, 803.270 329.600, 803.391 329.722 C 803.831 330.166, 820.510 331.823, 820.874 331.459 C 821.080 331.253, 821.870 324.878, 822.629 317.292 C 824.129 302.296, 829.177 253.815, 834.425 204 C 836.250 186.675, 837.664 172.400, 837.566 172.278 C 837.195 171.813, 820.481 170.186, 820.090 170.577 C 819.668 170.999, 813.125 232.513, 813.025 237 C 812.913 242.023, 812.581 242.092, 796.449 240.487 C 770.969 237.951, 772.912 238.484, 773.504 234.188 C 773.784 232.160, 775.356 217.225, 776.998 201 C 778.641 184.775, 780.195 170.296, 780.452 168.825 C 780.913 166.192, 780.816 166.141, 774.210 165.524 C 770.519 165.180, 766.498 164.690, 765.272 164.435 C 763.572 164.083, 762.934 164.509, 762.577 166.237 M 889.578 184.146 C 888.761 186.668, 881.221 211.417, 876.523 227 C 873.953 235.525, 870.568 246.550, 869 251.500 C 867.432 256.450, 864.108 267.250, 861.613 275.500 C 859.119 283.750, 853.917 300.820, 850.055 313.432 C 846.192 326.045, 843.137 336.438, 843.266 336.527 C 843.528 336.708, 868.421 344.375, 886 349.688 C 892.325 351.600, 899.434 353.782, 901.798 354.538 C 905.099 355.593, 906.197 355.632, 906.528 354.706 C 908.087 350.351, 910.867 340.533, 910.613 340.280 C 910.445 340.112, 906.751 338.913, 902.404 337.617 C 877.675 330.241, 866.418 326.706, 865.768 326.109 C 865.182 325.570, 880.463 273.495, 881.611 272.119 C 881.786 271.909, 889.658 274.107, 899.105 277.003 C 908.552 279.899, 916.967 282.321, 917.806 282.385 C 918.838 282.463, 919.921 280.557, 921.152 276.500 C 922.154 273.200, 922.979 269.790, 922.986 268.923 C 922.997 267.741, 918.477 265.988, 905 261.945 C 892.994 258.343, 887 256.086, 887 255.167 C 887 254.410, 889.662 245.175, 892.915 234.645 C 896.168 224.115, 899.575 212.912, 900.486 209.750 C 901.397 206.588, 902.299 204, 902.491 204 C 902.684 204, 912.349 206.910, 923.971 210.468 C 935.592 214.025, 945.837 217.062, 946.736 217.218 C 947.973 217.431, 948.926 215.689, 950.657 210.055 C 951.914 205.960, 952.843 202.511, 952.722 202.391 C 952.600 202.270, 939 198.020, 922.500 192.945 C 906 187.870, 891.941 183.510, 891.258 183.255 C 890.576 183.001, 889.819 183.402, 889.578 184.146 M 562.317 187.449 C 548.703 190.528, 539.850 196.532, 535.318 205.761 C 532.760 210.971, 532.503 212.468, 532.536 222 C 532.566 230.755, 533.088 234.245, 535.677 243 C 537.385 248.775, 542.231 265.425, 546.446 280 C 557.608 318.602, 558.993 322.993, 561.687 328.340 C 566.986 338.860, 576.887 346.225, 587.500 347.541 C 598.608 348.919, 615.747 342.618, 622.568 334.650 C 628.278 327.978, 630.266 321.140, 629.733 310 C 629.353 302.038, 628.191 296.777, 622.557 277.500 C 618.860 264.850, 613.127 245.061, 609.818 233.524 C 606.508 221.987, 602.470 209.912, 600.843 206.690 C 592.765 190.686, 578.813 183.718, 562.317 187.449 M 561.816 204.581 C 552.550 207.432, 548.197 215.500, 549.989 226.500 C 550.437 229.250, 553.957 242.300, 557.810 255.500 C 561.664 268.700, 567.103 287.420, 569.897 297.100 C 575.799 317.549, 576.988 320.644, 580.582 324.915 C 585.567 330.840, 591.714 332.364, 600.276 329.799 C 608.670 327.284, 613.987 318.577, 612.564 309.677 C 612.221 307.528, 608.083 292.434, 603.370 276.135 C 598.656 259.836, 593.035 240.345, 590.879 232.823 C 586.167 216.383, 584.903 213.227, 581.334 208.985 C 576.447 203.177, 570.638 201.866, 561.816 204.581 M 989.584 241.753 C 984.130 252.064, 972.614 273.775, 963.993 290 C 933.193 347.968, 924.767 364.099, 925.131 364.401 C 926.600 365.616, 938.914 372, 939.790 372 C 940.394 372, 943.912 366.262, 947.607 359.250 C 951.303 352.238, 958.439 338.765, 963.465 329.311 L 972.604 312.121 980.052 316.102 C 988.730 320.741, 995.406 327.191, 996.816 332.296 C 998.378 337.952, 996.756 342.648, 985.908 363.882 C 978.773 377.848, 975.830 384.652, 975.693 387.498 C 975.501 391.480, 975.528 391.511, 982.500 395.217 C 986.350 397.263, 989.731 398.951, 990.013 398.968 C 990.296 398.986, 991.064 396.737, 991.722 393.970 C 992.379 391.204, 996.873 381.435, 1001.708 372.263 C 1012.821 351.182, 1014.284 347.285, 1014.381 338.500 C 1014.461 331.257, 1012.960 326.903, 1008.818 322.367 L 1006.870 320.233 1013.804 319.841 C 1026.336 319.133, 1033.210 312.903, 1043.423 293 C 1050.249 279.699, 1052.407 272.427, 1051.734 264.999 C 1050.917 255.995, 1046.058 248.749, 1036.500 242.285 C 1033.263 240.095, 1000.933 222.998, 1000.040 223.003 C 999.743 223.005, 995.038 231.443, 989.584 241.753 M 450.467 233.277 C 442.246 236.307, 412 251.985, 412 253.216 C 412 254.329, 483.740 393.008, 485.017 394.366 C 485.466 394.843, 489.244 393.349, 493.425 391.041 L 501.018 386.850 492.882 371.175 C 488.407 362.554, 481.376 349.050, 477.256 341.167 C 473.136 333.284, 470.156 326.470, 470.633 326.025 C 471.110 325.580, 474.811 323.498, 478.858 321.399 C 484.486 318.479, 487.683 317.488, 492.452 317.184 C 503.762 316.464, 505.536 318.258, 519.617 344.664 C 529.318 362.856, 534.180 369.524, 536.969 368.464 C 537.811 368.143, 541.334 366.299, 544.798 364.365 L 551.096 360.849 547.798 357.174 C 545.984 355.153, 540.040 345.037, 534.589 334.692 C 520.834 308.590, 514.177 302.076, 501.199 302.022 L 495.898 302 498.325 298.750 C 502.049 293.764, 503.311 288.594, 502.743 280.658 C 502.294 274.379, 501.440 272.013, 495.016 259.260 C 487.099 243.543, 481.340 236.418, 473.781 232.987 C 467.835 230.288, 458.252 230.407, 450.467 233.277 M 1000 260.230 C 995.875 268.056, 989.734 279.759, 986.353 286.237 L 980.206 298.015 989.635 302.696 C 996.704 306.205, 1000.519 307.482, 1004.874 307.797 C 1010.301 308.190, 1010.931 307.999, 1014.460 304.901 C 1016.537 303.077, 1019.248 299.983, 1020.484 298.025 C 1025.224 290.516, 1032.830 274.319, 1033.467 270.377 C 1034.242 265.576, 1032.493 260.613, 1028.879 257.358 C 1026.365 255.094, 1009.980 246, 1008.418 246.001 C 1007.913 246.001, 1004.125 252.404, 1000 260.230 M 447.427 252.395 C 433.123 259.437, 433.041 255.704, 448.148 285 C 455.380 299.025, 461.484 310.716, 461.712 310.980 C 462.555 311.955, 477.639 303.433, 481.734 299.667 C 489.659 292.381, 489.385 286.273, 480.353 268.889 C 473.909 256.487, 470.396 251.890, 465.634 249.630 C 460.366 247.131, 457.119 247.624, 447.427 252.395 M 359 289.077 C 352.675 294.046, 341.546 302.763, 334.268 308.448 L 321.037 318.785 324.854 323.642 C 341.609 344.962, 401.068 421.011, 419.663 444.906 C 419.915 445.230, 429.526 438.226, 433.349 434.934 C 433.815 434.532, 424.815 422.213, 413.349 407.558 C 401.882 392.904, 392.500 380.396, 392.500 379.764 C 392.500 379.131, 397.999 374.313, 404.719 369.057 C 422 355.540, 420.919 357.418, 415.456 350.423 C 412.912 347.165, 410.359 344.632, 409.783 344.794 C 409.207 344.956, 402.765 349.793, 395.467 355.544 C 388.170 361.295, 381.816 365.978, 381.349 365.952 C 380.452 365.902, 346.897 323.191, 346.265 321.294 C 346.062 320.685, 352.959 314.632, 361.592 307.843 C 370.225 301.054, 378.205 294.778, 379.324 293.895 C 381.333 292.312, 381.295 292.206, 376.533 286.145 C 373.877 282.765, 371.434 280.010, 371.102 280.022 C 370.771 280.033, 365.325 284.109, 359 289.077 M 1104.286 297.391 C 1097.257 299.688, 1091.689 303.527, 1084.810 310.819 C 1070.950 325.511, 1068.198 339.241, 1073.702 366.243 C 1077.383 384.304, 1077.569 400.455, 1074.170 406.849 C 1069.121 416.348, 1059.634 423.923, 1052.718 423.978 C 1046.655 424.026, 1038.536 418.782, 1035.411 412.800 C 1033.627 409.386, 1033.599 402.893, 1035.349 398.718 C 1036.090 396.948, 1039.055 392.427, 1041.937 388.671 C 1044.818 384.916, 1047.024 381.741, 1046.838 381.616 C 1046.652 381.491, 1043.976 379.277, 1040.892 376.695 C 1037.808 374.113, 1034.859 372, 1034.338 372 C 1032.728 372, 1023.248 385.218, 1020.406 391.423 C 1016.854 399.183, 1016.101 408.776, 1018.481 415.943 C 1020.917 423.278, 1029.866 432.616, 1039.248 437.612 C 1045.671 441.033, 1047.303 441.476, 1053.521 441.487 C 1063.004 441.504, 1071.527 437.375, 1080.302 428.514 C 1094.668 414.005, 1097.992 398.660, 1092.435 372.500 C 1089.251 357.514, 1088.281 343.166, 1089.974 336.107 C 1092.523 325.482, 1103.284 314.969, 1112.374 314.224 C 1116.893 313.853, 1118.092 314.200, 1122.500 317.152 C 1133.842 324.747, 1134.297 334.998, 1123.876 348.156 L 1120.981 351.812 1127.471 356.977 C 1131.041 359.818, 1134.387 361.879, 1134.907 361.557 C 1136.915 360.316, 1143.968 348.702, 1145.982 343.319 C 1148.809 335.764, 1148.861 325.736, 1146.107 319.509 C 1143.316 313.200, 1133.736 303.905, 1125.996 299.998 C 1118.551 296.240, 1110.696 295.296, 1104.286 297.391 M 708 361.668 C 655.455 365.388, 608.957 377.868, 565 400.049 C 528.275 418.581, 500.135 438.750, 471.152 467.315 C 409.117 528.456, 371.988 606.382, 362.908 694.500 C 361.448 708.666, 361.462 749.311, 362.932 763.500 C 372.146 852.448, 410.235 931.616, 473.108 992.500 C 534.226 1051.684, 611.335 1087.291, 695.230 1095.069 C 712.897 1096.707, 763.919 1095.759, 778 1093.531 C 826.122 1085.917, 860.077 1075.050, 899.485 1054.651 C 1000.099 1002.569, 1073.005 902.600, 1091.396 791.500 C 1095.795 764.928, 1096.395 757.427, 1096.395 729 C 1096.395 700.587, 1095.798 693.110, 1091.401 666.500 C 1081.727 607.944, 1055.879 549.608, 1018.544 502.067 C 976.611 448.672, 920.116 407.527, 856 383.689 C 811.250 367.050, 753.448 358.450, 708 361.668 M 695 393.557 C 652.823 397.659, 610.481 410.402, 572.500 430.423 C 509.261 463.758, 457.790 516.495, 427 579.500 C 374.672 686.580, 381.680 810.957, 445.665 910.750 L 450.955 919 728.765 919 L 1006.576 919 1010.719 912.698 C 1037.361 872.176, 1056.070 821.527, 1062.691 772 C 1065.257 752.804, 1065.259 704.177, 1062.695 685 C 1050.161 591.278, 999.916 508.096, 922.798 453.397 C 885.797 427.152, 840.633 407.630, 796 398.590 C 765.557 392.423, 726.608 390.483, 695 393.557 M 750.573 488.195 C 749.755 490.824, 747.878 514.211, 748.441 514.774 C 749.310 515.643, 750.956 513.028, 756.901 501.329 C 761.001 493.260, 762.060 490.316, 761.298 489.101 C 760.004 487.036, 751.167 486.289, 750.573 488.195 M 696.792 500.250 C 693.024 503.212, 693.690 505.358, 701.554 515.604 C 711.380 528.405, 713.018 528.589, 709.527 516.500 C 708.733 513.750, 707.546 509.326, 706.889 506.669 C 706.232 504.011, 705.056 501.199, 704.276 500.419 C 702.523 498.665, 698.911 498.584, 696.792 500.250 M 728.455 535.455 C 726.039 537.870, 725.286 541.976, 726.621 545.455 C 727.530 547.823, 732.834 550.259, 735.580 549.569 C 744.795 547.256, 743.436 533, 734 533 C 732.052 533, 730.002 533.907, 728.455 535.455 M 616 535.592 C 609.643 538.341, 603 546.148, 603 550.869 C 603 553.282, 609.116 557.059, 630 567.544 C 646.343 575.748, 681.294 590.917, 695.500 595.971 C 700.450 597.732, 705.272 599.579, 706.216 600.074 C 707.723 600.865, 710.166 601.572, 718.595 603.656 C 720.238 604.062, 721.046 603.422, 722.345 600.686 C 724.561 596.016, 724.432 593.268, 721.750 588.020 C 719.211 583.051, 716.185 580.515, 710.442 578.543 C 706.782 577.286, 706.451 576.854, 705.819 572.498 C 704.388 562.638, 697.808 557, 687.733 557 L 682.268 557 680.123 551.117 C 676.264 540.534, 666.384 533.965, 656.545 535.441 C 652.542 536.041, 650.118 537.045, 644.134 540.580 C 641.227 542.297, 641.142 542.281, 637.345 539.315 C 630.496 533.965, 622.847 532.631, 616 535.592 M 831.599 534.982 C 830.004 535.491, 826.993 537.278, 824.908 538.954 C 820.338 542.626, 819.748 542.667, 815.683 539.592 C 811.510 536.436, 804.585 534.655, 799.542 535.442 C 791.280 536.731, 782.761 545.016, 781.051 553.424 C 780.438 556.434, 780.275 556.512, 773.462 557.053 C 769.253 557.388, 765.420 558.318, 763.768 559.407 C 759.983 561.900, 756.958 567.151, 756.167 572.597 C 755.551 576.841, 755.201 577.292, 751.558 578.543 C 743.347 581.362, 739.004 586.951, 739.002 594.703 C 739 599.338, 740.715 604.008, 742.411 603.985 C 744.113 603.962, 754.851 600.483, 755.633 599.701 C 756.018 599.315, 756.936 599, 757.673 599 C 758.832 599, 771.140 594.427, 780.500 590.518 C 803.180 581.047, 812.240 576.926, 833.836 566.254 L 859.173 553.734 858.502 550.117 C 856.525 539.453, 842.430 531.524, 831.599 534.982 M 592.222 561.250 C 591.117 564.138, 588.783 570.325, 587.036 575 C 585.289 579.675, 583.461 584.400, 582.974 585.500 C 582.488 586.600, 580.924 590.425, 579.500 594 C 578.076 597.575, 576.505 601.400, 576.010 602.500 C 574.558 605.723, 571.615 612.491, 564.483 629 C 560.801 637.525, 556.036 648.239, 553.894 652.809 C 551.752 657.379, 550 661.290, 550 661.499 C 550 661.708, 548.033 666.069, 545.628 671.190 C 543.224 676.310, 539.792 683.650, 538.001 687.500 C 527.674 709.707, 511.703 740.734, 500.352 760.642 C 496.859 766.770, 494 772.904, 494 774.273 C 494 783.542, 544.292 813.116, 581.961 825.999 C 587.164 827.779, 592.339 829.574, 593.461 829.988 C 600.297 832.513, 617.139 836.681, 626.033 838.050 C 632.345 839.021, 634.145 838.966, 637.142 837.714 C 640.428 836.341, 640.858 835.664, 642.440 829.360 C 647.326 809.888, 653.819 787.382, 658.555 773.500 C 659.306 771.300, 662.217 762.750, 665.025 754.500 C 667.833 746.250, 670.557 738.600, 671.080 737.500 C 671.603 736.400, 672.442 734.150, 672.945 732.500 C 674.044 728.895, 682.633 706.328, 683.983 703.500 C 684.507 702.400, 686.706 697, 688.869 691.500 C 693.456 679.833, 707.523 647.164, 713.090 635.249 C 715.210 630.711, 717.934 624.636, 719.143 621.749 C 720.352 618.862, 721.765 615.943, 722.283 615.263 C 723.913 613.120, 722.257 611.153, 717.803 609.942 C 703.011 605.922, 681.781 597.774, 654.023 585.463 C 640.228 579.345, 610.071 564.232, 602.500 559.642 C 599.200 557.642, 595.990 556.004, 595.366 556.003 C 594.743 556.001, 593.328 558.362, 592.222 561.250 M 864.325 557.032 C 863.129 557.498, 860.266 559.069, 857.963 560.523 C 843.494 569.657, 792.138 593.170, 767.500 601.942 C 760.900 604.291, 753.925 606.794, 752 607.503 C 750.075 608.212, 746.564 609.314, 744.197 609.952 C 741.831 610.590, 739.653 611.740, 739.359 612.508 C 739.064 613.276, 739.938 616.063, 741.302 618.702 C 742.665 621.341, 744.781 625.975, 746.004 629 C 747.227 632.025, 749.266 636.750, 750.535 639.500 C 758.633 657.053, 760 660.206, 760 661.338 C 760 662.032, 760.387 663.028, 760.860 663.550 C 761.332 664.072, 764.283 670.800, 767.415 678.500 C 770.548 686.200, 773.518 693.400, 774.015 694.500 C 778.294 703.975, 796.014 751.822, 802.128 770.411 C 809.770 793.648, 813.619 806.641, 817.854 823.500 C 821.069 836.299, 820.967 836.088, 824.689 837.643 C 827.663 838.886, 829.450 838.944, 835.380 837.992 C 844.995 836.448, 855.744 834.041, 860 832.479 C 861.925 831.773, 866.425 830.274, 870 829.148 C 895.838 821.014, 927.610 805.958, 949.256 791.592 C 963.015 782.459, 967.340 778.240, 967.221 774.060 C 967.172 772.343, 964.940 767.302, 962.067 762.422 C 959.280 757.686, 957 753.576, 957 753.287 C 957 752.998, 955.461 750.228, 953.581 747.131 C 948.669 739.042, 930.744 702.940, 918.016 675.500 C 916.230 671.650, 913.246 665.220, 911.384 661.212 C 909.523 657.203, 908 653.706, 908 653.441 C 908 653.175, 906.689 650.155, 905.087 646.729 C 903.484 643.303, 901.277 638.475, 900.181 636 C 891.850 617.178, 886.066 603.662, 881.372 592.043 C 878.362 584.594, 875.511 577.600, 875.036 576.500 C 874.561 575.400, 872.951 571.020, 871.458 566.766 C 868.085 557.154, 867.180 555.919, 864.325 557.032 M 530.608 577.415 C 520.348 581.229, 506.750 601.517, 490.672 637 C 484.991 649.538, 476.630 673.235, 474.882 681.750 C 472.550 693.115, 476.107 704.003, 485.341 713.767 C 489.822 718.505, 506.871 731, 508.855 731 C 509.536 731, 517 717.901, 517 716.705 C 517 716.400, 513.593 714.082, 509.430 711.554 C 500.379 706.059, 495.555 701.064, 493.511 695.072 C 490.994 687.695, 491.576 683.596, 497.713 665.500 C 502.976 649.982, 506.980 640.485, 514.707 625.197 C 525.748 603.354, 533.865 594, 541.780 594 C 545.615 594, 556.613 598.131, 562.324 601.717 C 564.427 603.038, 566.881 603.977, 567.778 603.804 C 569.355 603.501, 573.043 595.448, 573.350 591.639 C 573.462 590.246, 571.257 588.640, 564.580 585.254 C 548.122 576.905, 538.162 574.607, 530.608 577.415 M 917.719 576.963 C 915.639 577.366, 912.939 578.142, 911.719 578.689 C 904.184 582.063, 891.164 588.385, 889.301 589.575 L 887.101 590.980 889.643 596.740 C 893.277 604.975, 893.748 605.401, 896.891 603.305 C 902.821 599.349, 910.293 596.019, 915.724 594.911 C 923.352 593.354, 927.383 595.013, 932.885 601.973 C 942.754 614.459, 958.528 647.300, 965.079 669 C 966.158 672.575, 967.579 677.263, 968.236 679.418 C 969.822 684.617, 969.565 692.659, 967.673 697.046 C 965.655 701.724, 957.903 708.814, 950.752 712.521 C 947.591 714.159, 945.004 716.049, 945.002 716.719 C 944.999 718.271, 948.916 725.830, 950.104 726.564 C 950.597 726.869, 951 727.991, 951 729.059 C 951 731.979, 952.433 731.499, 961.443 725.566 C 978.521 714.319, 985.875 704.963, 987.548 692.353 C 988.337 686.402, 985.089 672.228, 980.097 659.841 C 979.578 658.553, 977.472 653.225, 975.418 648 C 964.445 620.093, 947.682 590.291, 938.324 582.054 C 931.952 576.445, 926.870 575.190, 917.719 576.963 M 531.500 584.659 C 527.104 586.972, 523 591.105, 523 593.218 C 523 596.384, 525.807 596.377, 529.423 593.202 C 531.309 591.546, 534.276 589.879, 536.018 589.496 C 540.241 588.568, 547.589 589.750, 552.187 592.095 C 554.240 593.143, 557.063 594, 558.460 594 C 562.258 594, 561.819 590.488, 557.750 588.319 C 547.881 583.058, 537.336 581.588, 531.500 584.659 M 912.500 584.881 C 904.709 587.493, 901 589.807, 901 592.057 C 901 595.172, 903.359 595.358, 908.680 592.662 C 918.101 587.888, 927.040 588.220, 932.027 593.529 C 934.527 596.189, 937.493 596.770, 938.262 594.750 C 939.255 592.139, 936.915 588.991, 931.800 586.058 C 925.665 582.540, 920.436 582.221, 912.500 584.881 M 591.556 586.910 C 591.247 587.410, 591.247 588.480, 591.557 589.288 C 592.130 590.780, 613.742 602.940, 626.500 608.948 C 638.505 614.601, 651.738 620.629, 657 622.840 C 658.375 623.418, 661.525 624.765, 664 625.833 C 666.475 626.901, 673 629.421, 678.500 631.434 C 692.585 636.589, 693.983 637.164, 694.513 638.022 C 694.772 638.440, 694.084 640.817, 692.984 643.302 L 690.985 647.822 685.743 645.846 C 677.927 642.900, 671.242 641.083, 664.135 639.971 C 660.634 639.423, 657.394 638.743, 656.935 638.460 C 656.476 638.176, 652.140 637.516, 647.300 636.993 C 637.070 635.889, 618.706 632.816, 611.500 631.004 C 604.659 629.284, 594.998 625.720, 585.312 621.344 C 582.458 620.055, 579.758 619, 579.310 619 C 578.361 619, 573.993 626.949, 573.997 628.669 C 573.999 629.312, 573.359 631.112, 572.577 632.669 C 571.794 634.226, 568.823 641.125, 565.975 648 C 563.127 654.875, 560.192 661.850, 559.451 663.500 C 556.723 669.582, 553.151 677.696, 549.986 685 C 548.199 689.125, 545.282 695.650, 543.504 699.500 C 541.726 703.350, 539.342 708.525, 538.206 711 C 537.070 713.475, 532.509 723.358, 528.070 732.961 C 523.632 742.565, 520 751.451, 520 752.708 C 520 757.279, 532.109 767.333, 547.500 775.542 C 558.999 781.675, 582.346 793, 583.490 793 C 583.782 793, 585.929 793.855, 588.261 794.900 C 600.755 800.500, 620.691 805.982, 628.500 805.966 C 635.693 805.951, 637.078 804.347, 641.422 791 C 644.956 780.140, 651.247 761.887, 652.967 757.500 C 653.398 756.400, 654.293 754.162, 654.956 752.526 C 655.619 750.890, 657.973 744.590, 660.187 738.526 C 662.401 732.462, 664.794 726.150, 665.506 724.500 C 667.458 719.974, 675.043 701.111, 676.966 696 C 678.732 691.304, 688.893 667.427, 692.072 660.500 C 693.082 658.300, 695.932 651.787, 698.407 646.027 C 703.526 634.108, 703.388 633.329, 695.736 631.048 C 693.406 630.353, 689.700 629.108, 687.500 628.280 C 685.300 627.452, 681.925 626.189, 680 625.473 C 669.945 621.735, 662.898 618.938, 657.500 616.546 C 654.200 615.083, 650.600 613.492, 649.500 613.011 C 641.007 609.295, 618.347 598.066, 608.350 592.619 C 596.694 586.270, 592.775 584.937, 591.556 586.910 M 857.500 590.591 C 850.985 594.318, 820.499 609.509, 812.500 613.014 C 803.449 616.981, 800.662 618.168, 795.919 620.079 C 785.956 624.093, 780.563 626.082, 771.905 628.933 C 761.476 632.368, 759 633.631, 759 635.516 C 759 636.311, 760.737 640.683, 762.859 645.231 C 768.077 656.411, 788.414 704.187, 792.558 715 C 793.296 716.925, 796.222 724.575, 799.061 732 C 801.900 739.425, 804.847 746.918, 805.611 748.651 C 806.375 750.384, 807 752.303, 807 752.915 C 807 753.527, 807.447 754.809, 807.993 755.764 C 809.068 757.643, 813.798 771.289, 820.125 790.762 C 824.981 805.711, 825.880 806.568, 835.791 805.687 C 839.481 805.359, 843.850 804.658, 845.500 804.128 C 847.150 803.598, 850.975 802.408, 854 801.483 C 883.459 792.472, 924.996 771.853, 936.887 760.338 C 943.422 754.010, 943.447 754.367, 935.207 737 C 931.944 730.125, 928.272 722.250, 927.045 719.500 C 925.818 716.750, 923.774 712.250, 922.502 709.500 C 921.230 706.750, 918.996 701.800, 917.538 698.500 C 916.079 695.200, 914.453 691.600, 913.925 690.500 C 913.396 689.400, 906.743 674.100, 899.141 656.500 C 888.791 632.540, 884.848 624.409, 883.448 624.136 C 882.420 623.936, 880.211 624.442, 878.539 625.260 C 871.248 628.830, 861.028 631.949, 850 633.970 C 846.425 634.625, 841.340 635.574, 838.701 636.080 C 836.061 636.586, 830.886 637.020, 827.201 637.044 C 823.515 637.068, 817.237 637.518, 813.250 638.044 C 809.263 638.570, 802.962 639.405, 799.250 639.901 C 792.152 640.848, 784.439 642.771, 777.124 645.417 C 771.096 647.598, 770.601 647.483, 768.685 643.466 C 765.893 637.612, 766.474 636.782, 775 634.450 C 778.768 633.420, 799.639 625.184, 806.820 621.895 C 810.296 620.303, 813.306 619, 813.510 619 C 814.074 619, 832.714 610.254, 839.500 606.806 C 865.896 593.392, 871.313 589.979, 870.321 587.394 C 869.390 584.967, 865.740 585.878, 857.500 590.591 M 517.709 597.624 C 516.464 598.869, 516.948 601.766, 518.500 602.362 C 520.956 603.304, 523.131 601.920, 522.803 599.623 C 522.503 597.520, 519.135 596.199, 517.709 597.624 M 938.709 597.624 C 937.266 599.068, 938.065 601.886, 940.101 602.532 C 942.629 603.335, 944.318 601.898, 943.834 599.356 C 943.476 597.482, 940.019 596.314, 938.709 597.624 M 580.071 630.384 C 578.932 632.228, 578 634.067, 578 634.472 C 578 635.399, 555.030 689.142, 554.054 690.500 C 553.659 691.050, 552.730 693.075, 551.991 695 C 550.672 698.431, 547.489 705.503, 540.500 720.522 C 538.575 724.659, 537 728.255, 537 728.514 C 537 728.773, 534.750 733.535, 532 739.098 C 529.250 744.660, 527 750.200, 527 751.409 C 527 755.052, 534.666 761.139, 550.532 770.095 C 561.108 776.065, 580.288 785.046, 593 789.980 C 597.675 791.795, 602.400 793.635, 603.500 794.069 C 608.474 796.033, 620.001 798.956, 625.084 799.544 C 630.913 800.217, 634 798.787, 634 795.415 C 634 793.926, 641.268 771.687, 645.573 760 C 651.800 743.098, 657.371 728.151, 658.059 726.500 C 658.518 725.400, 659.776 722.250, 660.856 719.500 C 663.044 713.925, 669.670 697.598, 671.001 694.500 C 671.474 693.400, 673.743 688, 676.043 682.500 C 680.483 671.886, 681.332 669.905, 685.415 660.626 C 686.837 657.395, 688 654.594, 688 654.401 C 688 653.787, 682.301 651.078, 677.828 649.566 C 671.208 647.329, 656.804 644.400, 643.500 642.586 C 614.765 638.669, 602.425 635.677, 585.821 628.601 L 582.143 627.033 580.071 630.384 M 873 633.901 C 859.126 638.936, 844.005 641.604, 818.500 643.517 C 801.211 644.814, 777.744 650.194, 775.010 653.487 C 773.975 654.736, 777.584 664.439, 786.545 684.500 C 787.282 686.150, 790.400 693.800, 793.473 701.500 C 796.546 709.200, 799.450 716.400, 799.927 717.500 C 806.521 732.716, 825.498 785.677, 827.403 794.180 C 828.444 798.830, 830.724 800.263, 835.911 799.530 C 840.760 798.844, 854.123 795.467, 857.500 794.074 C 858.600 793.620, 864 791.539, 869.500 789.449 C 896.256 779.282, 927.789 762.293, 934.138 754.624 C 936.011 752.361, 935.883 751.968, 927.662 734.809 C 921.043 720.993, 916.389 710.864, 913.428 703.830 C 911.976 700.380, 909.450 694.619, 907.814 691.029 C 906.178 687.438, 904.449 683.600, 903.972 682.500 C 903.496 681.400, 901.803 677.575, 900.211 674 C 898.619 670.425, 893.784 659.288, 889.466 649.250 C 885.148 639.212, 881.365 631.040, 881.058 631.089 C 880.751 631.138, 877.125 632.404, 873 633.901 M 648.039 674.189 C 645.343 677.083, 645.466 679.557, 648.455 682.545 C 651.439 685.530, 652.016 685.562, 655.365 682.927 C 658.532 680.437, 658.791 676.791, 656 674 C 653.397 671.397, 650.577 671.464, 648.039 674.189 M 805.986 673.810 C 804.608 674.926, 803.750 676.726, 803.750 678.500 C 803.750 681.388, 806.932 685, 809.476 685 C 811.861 685, 816 680.876, 816 678.500 C 816 676.124, 811.861 672, 809.476 672 C 808.786 672, 807.215 672.815, 805.986 673.810 M 615.551 698.344 C 612.233 702.695, 612.329 705.483, 615.923 709.077 C 619.487 712.641, 624.527 713.021, 627.799 709.972 C 633.872 704.315, 630.179 695, 621.862 695 C 618.773 695, 617.646 695.597, 615.551 698.344 M 834.789 696.363 C 832.357 698.211, 830.950 702.502, 831.642 705.961 C 832.788 711.689, 840.348 713.874, 845.365 709.927 C 848.942 707.114, 849.111 700.393, 845.686 697.174 C 843.062 694.710, 837.510 694.297, 834.789 696.363 M 0.432 729 C 0.432 742.475, 0.574 747.987, 0.747 741.250 C 0.920 734.513, 0.920 723.487, 0.747 716.750 C 0.574 710.013, 0.432 715.525, 0.432 729 M 578.200 721.200 C 576.246 723.154, 576.717 728.778, 578.934 729.965 C 584.994 733.208, 591.159 726.302, 586.429 721.571 C 584.569 719.712, 579.899 719.501, 578.200 721.200 M 875.200 721.200 C 874.540 721.860, 874 723.895, 874 725.721 C 874 729.583, 877.171 731.676, 881.411 730.612 C 884.467 729.845, 885.763 725.970, 884.148 722.426 C 883.301 720.567, 882.267 720, 879.721 720 C 877.895 720, 875.860 720.540, 875.200 721.200 M 504.961 769.547 C 503.106 771.782, 504.348 773.463, 512.193 779.343 C 523.708 787.973, 536.118 795.129, 538.987 794.794 C 543.637 794.250, 542.107 790.927, 535.500 787.218 C 527.410 782.677, 519.440 777.390, 514 772.955 C 508.471 768.447, 506.493 767.701, 504.961 769.547 M 944.500 775.082 C 940.100 778.423, 932.788 783.231, 928.250 785.767 C 919.955 790.403, 917.864 793.243, 921.673 794.705 C 923.894 795.557, 935.374 789.582, 945.500 782.304 C 955.961 774.786, 957.250 773.539, 956.831 771.341 C 956.165 767.851, 952.600 768.932, 944.500 775.082 M 589.667 813.667 C 589.300 814.033, 589 815.076, 589 815.983 C 589 819.785, 621.040 828.836, 631 827.847 C 633.692 827.580, 634.571 827, 634.808 825.336 C 635.152 822.925, 634.258 822.517, 626.500 821.536 C 620.500 820.778, 608.287 818.139, 605.500 816.998 C 601.982 815.558, 593.172 813, 591.729 813 C 590.961 813, 590.033 813.300, 589.667 813.667 M 866.806 813.528 C 865.807 814.527, 841.492 820.795, 836 821.469 C 827.841 822.471, 827 822.854, 827 825.567 C 827 827.757, 827.418 828, 831.190 828 C 837.282 828, 845.947 826.222, 859 822.295 C 871.231 818.616, 873.456 817.353, 872.430 814.678 C 871.831 813.118, 867.999 812.334, 866.806 813.528 M 279 914.635 C 246.825 931.412, 215.213 947.829, 208.750 951.119 C 202.287 954.409, 197 957.574, 197 958.154 C 197 959.674, 204.118 973, 204.930 973 C 205.305 973, 219.055 966.025, 235.484 957.500 C 251.913 948.975, 265.613 942.002, 265.928 942.004 C 266.242 942.006, 270.246 949.206, 274.825 958.004 C 279.403 966.802, 283.356 974, 283.609 974 C 283.862 974, 287.116 972.338, 290.840 970.306 L 297.612 966.612 289.282 950.393 L 280.952 934.174 286.226 931.224 C 289.127 929.601, 300.754 923.504, 312.063 917.675 L 332.627 907.076 342.970 927.038 C 348.659 938.017, 353.706 947, 354.185 947 C 355.459 947, 366.766 941.188, 367.359 940.229 C 367.963 939.251, 339.677 884.697, 338.393 884.364 C 337.902 884.237, 311.175 897.859, 279 914.635 M 1119.672 896.108 C 1112.545 899.868, 1107.590 906.421, 1097.100 925.960 C 1091.545 936.306, 1087 945.009, 1087 945.302 C 1087 946.161, 1227.916 1021.456, 1228.412 1020.862 C 1229.870 1019.118, 1248.277 983.494, 1249.462 980.124 C 1250.308 977.718, 1251 972.518, 1251 968.571 C 1251 954.636, 1243.794 945.985, 1223.243 935.250 C 1203.399 924.885, 1193.141 923.675, 1182.992 930.505 L 1178 933.865 1178 929.129 C 1178 919.056, 1171.392 910.865, 1156.588 902.586 C 1141.166 893.962, 1128.089 891.667, 1119.672 896.108 M 1126.500 913.365 C 1124.850 914.124, 1122.536 915.815, 1121.358 917.123 C 1118.017 920.831, 1109.640 937.052, 1110.621 937.913 C 1111.772 938.923, 1153.235 961.116, 1154.377 961.333 C 1155.693 961.584, 1162.789 948.265, 1164.622 942.102 C 1167.721 931.684, 1163.780 926.285, 1146.809 917.701 C 1136.424 912.448, 1131.008 911.292, 1126.500 913.365 M 1186.280 944.912 C 1184.509 946.024, 1181.654 948.861, 1179.935 951.217 C 1175.526 957.260, 1169.691 969.103, 1170.675 970.012 C 1172.108 971.335, 1220.799 997, 1221.877 997 C 1223.664 997, 1234 975.156, 1234 971.379 C 1234 965.640, 1230.542 960.307, 1224.138 956.168 C 1205.849 944.347, 1193.178 940.580, 1186.280 944.912 M 1074.108 962.250 L 1068.986 968.500 1073.173 972 C 1077.824 975.887, 1113.364 1005.071, 1145.244 1031.179 C 1156.652 1040.522, 1167.551 1049.994, 1169.463 1052.228 C 1177.789 1061.955, 1174.755 1074.811, 1162.708 1080.852 C 1158.399 1083.012, 1157.609 1083.106, 1152.997 1081.999 C 1146.590 1080.462, 1144.499 1079.006, 1121.532 1060.086 C 1063.253 1012.077, 1045.753 997.919, 1045.027 998.194 C 1043.781 998.667, 1035 1009.741, 1035 1010.840 C 1035 1011.871, 1042.592 1018.253, 1095.323 1061.550 C 1113.375 1076.372, 1130.581 1090.153, 1133.559 1092.173 C 1145.605 1100.346, 1158.523 1102.297, 1168.826 1097.501 C 1175.730 1094.287, 1184.135 1085.502, 1188.195 1077.256 C 1193.630 1066.216, 1192.053 1054.652, 1183.530 1043.041 C 1179.810 1037.973, 1177.097 1035.626, 1135.500 1001.480 C 1088.482 962.885, 1080.025 956, 1079.632 956 C 1079.411 956, 1076.925 958.813, 1074.108 962.250 M 358.836 961.858 C 355.721 962.888, 351.446 964.777, 349.336 966.056 C 342.364 970.284, 273.487 1024.748, 269.115 1029.491 C 262.678 1036.474, 258.750 1045.619, 258.750 1053.620 C 258.750 1059.064, 259.334 1061.292, 262.375 1067.445 C 266.665 1076.125, 274.655 1084.685, 281.623 1088.064 C 290.674 1092.454, 304.401 1091.466, 314 1085.733 C 315.925 1084.583, 329.367 1074.386, 343.872 1063.071 C 358.376 1051.757, 374.576 1039.136, 379.872 1035.024 C 392.066 1025.556, 397.716 1019.785, 401.500 1012.933 C 404.243 1007.965, 404.500 1006.686, 404.495 998 C 404.491 989.601, 404.175 987.901, 401.772 983.336 C 397.978 976.129, 388.614 966.345, 382.576 963.281 C 375.805 959.844, 366.600 959.292, 358.836 961.858 M 652.741 964.377 C 650.673 965.143, 648.239 966.385, 647.332 967.135 C 644.285 969.657, 642.045 976.244, 642.022 982.750 L 642 989 646 989 L 650 989 650 983.450 C 650 974.704, 652.636 971, 658.859 971 C 667.321 971, 670.593 983.036, 665.074 993.856 C 663.994 995.973, 659.596 1001.759, 655.302 1006.714 C 645.199 1018.370, 642.670 1023.384, 642.169 1032.750 L 641.781 1040 658.391 1040 L 675 1040 675 1036.531 L 675 1033.062 662.762 1032.781 C 651.863 1032.531, 650.486 1032.302, 650.176 1030.685 C 649.569 1027.516, 654.700 1018.763, 662.011 1010.500 C 672.505 998.640, 675.263 993.333, 675.747 984.071 C 676.084 977.622, 675.799 975.837, 673.821 972.023 C 672.545 969.560, 670.111 966.749, 668.413 965.776 C 664.109 963.309, 657.267 962.698, 652.741 964.377 M 701.968 963.885 C 697.676 965.284, 694.979 967.353, 692.693 971 C 690.574 974.383, 690.500 975.423, 690.500 1002 C 690.500 1027.702, 690.631 1029.722, 692.500 1032.895 C 696.035 1038.896, 699.198 1040.500, 707.500 1040.500 C 716.225 1040.500, 719.250 1038.807, 722.790 1031.941 C 725.033 1027.593, 725.075 1026.945, 724.790 1001 C 724.514 975.770, 724.395 974.332, 722.319 971 C 721.120 969.075, 718.766 966.692, 717.089 965.705 C 713.572 963.635, 705.660 962.683, 701.968 963.885 M 756.546 966.912 C 754.575 970.723, 750.331 974, 747.365 974 C 745.329 974, 745 974.487, 745 977.500 C 745 981.486, 746.085 981.827, 751.532 979.551 L 755 978.102 755 1009.051 L 755 1040 759.500 1040 L 764 1040 764 1002 L 764 964 761.026 964 C 758.752 964, 757.697 964.686, 756.546 966.912 M 783 968 L 783 972 795.500 972 C 803.145 972, 808 972.387, 808 972.997 C 808 973.782, 794.672 1021.248, 790.098 1036.750 L 789.140 1040 793.424 1040 L 797.709 1040 799.818 1032.750 C 810.753 995.157, 817 971.686, 817 968.193 L 817 964 800 964 L 783 964 783 968 M 702.261 972.529 C 698.764 974.979, 698.012 980.213, 698.006 1002.125 C 697.999 1024.963, 698.324 1027.897, 701.198 1030.982 C 704.211 1034.217, 711.560 1033.492, 714.399 1029.680 C 716.341 1027.072, 716.525 1025.333, 716.831 1006.680 C 717.233 982.175, 716.666 976.575, 713.457 973.366 C 710.687 970.596, 705.568 970.214, 702.261 972.529 M 359.500 980.823 C 354.411 983.660, 290.687 1033.256, 283.631 1039.872 C 273.657 1049.224, 273.725 1060.099, 283.815 1069.214 C 288.568 1073.508, 292.366 1074.506, 298.166 1072.987 C 304.061 1071.442, 306.468 1069.767, 335.876 1046.747 C 372.838 1017.815, 375.048 1016.046, 379.833 1011.561 C 389.805 1002.214, 390.585 992.762, 382.136 983.661 C 376.103 977.163, 367.910 976.135, 359.500 980.823 M 419.844 1026.394 C 408.743 1030.359, 406.028 1033.033, 368.129 1077.337 C 336.093 1114.788, 333.954 1118.079, 333.201 1131.081 C 332.775 1138.454, 332.970 1139.496, 335.888 1145.425 C 339.714 1153.195, 349 1162.191, 356.981 1165.858 C 368.375 1171.093, 381.149 1169.203, 392.009 1160.675 C 398.183 1155.827, 454.977 1090.247, 460.249 1081.879 C 465.558 1073.451, 466.501 1070.295, 466.488 1061 C 466.474 1050.769, 464.633 1046.612, 456.210 1037.781 C 448.354 1029.545, 439.011 1024.985, 430.116 1025.044 C 426.477 1025.068, 421.855 1025.675, 419.844 1026.394 M 424.422 1043.418 C 419.058 1045.754, 414.467 1050.600, 384.323 1085.749 C 355.299 1119.590, 350.002 1126.889, 350.032 1133 C 350.052 1137.145, 353.506 1143.447, 357.621 1146.845 C 365.398 1153.269, 373.114 1153.068, 381.399 1146.227 C 386.078 1142.363, 441.509 1078.259, 445.557 1072.030 C 446.819 1070.088, 448.370 1066.520, 449.004 1064.101 C 450.500 1058.396, 448.375 1052.414, 443.258 1047.922 C 436.750 1042.208, 430.587 1040.734, 424.422 1043.418 M 986.668 1051.617 C 980.674 1056.592, 980.059 1057.420, 981.285 1058.867 C 982.045 1059.765, 992.286 1071.975, 1004.042 1086 C 1083.005 1180.204, 1083.020 1180.221, 1084.841 1178.785 C 1087.331 1176.822, 1111.285 1156.619, 1122.262 1147.224 L 1132.024 1138.869 1126.882 1132.958 C 1123.542 1129.118, 1121.291 1127.301, 1120.458 1127.773 C 1119.753 1128.173, 1112.499 1134.130, 1104.338 1141.012 C 1096.177 1147.894, 1088.779 1154.081, 1087.897 1154.762 C 1086.149 1156.113, 1087.422 1157.578, 1005.761 1060.250 C 999.185 1052.412, 993.722 1046, 993.620 1046 C 993.518 1046, 990.390 1048.528, 986.668 1051.617 M 482.686 1066.713 C 477.955 1074.224, 476.955 1076.724, 478.276 1077.736 C 478.949 1078.251, 484.584 1081.516, 490.797 1084.992 C 499.354 1089.778, 501.949 1091.691, 501.493 1092.878 C 501.162 1093.741, 485.325 1121.683, 466.299 1154.973 C 447.273 1188.263, 431.537 1215.812, 431.330 1216.192 C 430.770 1217.222, 444.936 1225.244, 446.315 1224.678 C 446.967 1224.411, 463.250 1196.495, 482.500 1162.643 C 501.750 1128.790, 517.795 1101.072, 518.155 1101.047 C 518.515 1101.021, 524.310 1104.141, 531.034 1107.979 C 537.757 1111.818, 543.538 1114.785, 543.881 1114.574 C 544.964 1113.904, 551.496 1101.161, 550.987 1100.710 C 550.719 1100.473, 536.100 1092.058, 518.500 1082.011 C 500.900 1071.963, 486.179 1063.559, 485.786 1063.334 C 485.393 1063.110, 483.998 1064.630, 482.686 1066.713 M 951.845 1076.074 C 940.288 1077.894, 926.191 1087.953, 921.819 1097.500 C 918.807 1104.078, 918.691 1115.977, 921.559 1124 C 923.173 1128.512, 950.683 1178.011, 967.375 1206.434 C 979.689 1227.404, 996.480 1234.218, 1014.614 1225.606 C 1023.585 1221.346, 1031.505 1214.184, 1034.637 1207.500 C 1037.615 1201.147, 1037.820 1190.811, 1035.139 1182.199 C 1033.292 1176.266, 1021.312 1154, 1019.966 1154 C 1018.733 1154, 1006 1161.344, 1006 1162.055 C 1006 1162.431, 1009.038 1168.078, 1012.750 1174.604 C 1019.472 1186.419, 1019.500 1186.502, 1019.500 1194.169 C 1019.500 1201.326, 1019.293 1202.085, 1016.560 1204.937 C 1007.914 1213.962, 995.770 1214.197, 988.123 1205.487 C 986.534 1203.678, 977.242 1188.090, 967.475 1170.849 C 957.707 1153.607, 948.233 1137.013, 946.420 1133.973 C 944.608 1130.932, 941.748 1125.532, 940.064 1121.973 C 934.394 1109.989, 936.717 1100.345, 946.500 1095.246 C 958.063 1089.220, 966.549 1093.485, 976.057 1110.100 C 978.859 1114.995, 981.400 1119, 981.706 1119 C 982.011 1119, 985.362 1117.325, 989.152 1115.278 C 993.842 1112.745, 995.871 1111.105, 995.503 1110.146 C 995.205 1109.371, 992.543 1104.627, 989.587 1099.605 C 979.177 1081.916, 966.186 1073.817, 951.845 1076.074 M 557.484 1105.250 C 557.234 1105.938, 551.367 1123.150, 544.445 1143.500 C 537.523 1163.850, 528.714 1189.725, 524.869 1201 C 508.514 1248.957, 506.838 1254.134, 507.290 1255.287 C 507.552 1255.954, 517.156 1259.634, 528.633 1263.465 C 547.006 1269.598, 550.396 1270.431, 557 1270.440 C 566.369 1270.452, 572.102 1267.905, 578.354 1260.952 C 583.433 1255.302, 585.462 1251.293, 590.521 1236.911 C 597.135 1218.110, 596.479 1204.666, 588.543 1196.384 L 584.440 1192.101 588.470 1191.431 C 600.222 1189.475, 607.106 1181.105, 613.413 1161.100 C 617.054 1149.555, 617.641 1142.718, 615.597 1135.685 C 612.313 1124.391, 605.778 1119.994, 578.278 1110.580 C 567.706 1106.961, 558.804 1104, 558.497 1104 C 558.189 1104, 557.733 1104.563, 557.484 1105.250 M 568.923 1127.669 C 568.324 1129.226, 564.533 1140.253, 560.498 1152.174 L 553.162 1173.848 556.831 1175.313 C 564.533 1178.390, 571.578 1180, 577.336 1180 C 582.975 1180, 583.517 1179.782, 587.005 1176.116 C 589.735 1173.245, 591.648 1169.524, 594.331 1161.866 C 601.726 1140.757, 599.570 1135.096, 581.824 1129.024 C 576.696 1127.270, 571.940 1125.610, 571.256 1125.336 C 570.550 1125.053, 569.542 1126.060, 568.923 1127.669 M 807.273 1131.781 C 801.814 1133.145, 801.105 1133.594, 801.525 1135.419 C 802.096 1137.903, 829.421 1249.685, 835.002 1272.370 C 837.149 1281.098, 839.163 1288.496, 839.476 1288.810 C 839.949 1289.283, 899.759 1275.242, 900.851 1274.402 C 901.044 1274.253, 900.399 1270.727, 899.418 1266.566 C 898.282 1261.749, 897.142 1259, 896.281 1259 C 895.536 1259, 885.960 1261.250, 875 1264 C 853.169 1269.478, 852 1269.660, 852 1267.578 C 852 1266.796, 847.040 1245.984, 840.979 1221.328 C 834.917 1196.673, 827.388 1166.037, 824.248 1153.250 C 817.734 1126.728, 819.343 1128.763, 807.273 1131.781 M 662.683 1134.750 C 662.444 1135.162, 652.463 1165.650, 640.502 1202.500 C 628.542 1239.350, 617.380 1273.672, 615.699 1278.771 C 613.828 1284.448, 613.003 1288.394, 613.571 1288.948 C 614.082 1289.446, 617.732 1290.166, 621.682 1290.549 L 628.864 1291.245 633.552 1276.373 C 636.131 1268.193, 638.524 1261.185, 638.871 1260.800 C 639.482 1260.120, 677.945 1264.612, 678.796 1265.462 C 679.029 1265.696, 679.691 1273.085, 680.266 1281.882 L 681.312 1297.877 684.906 1298.397 C 686.883 1298.683, 690.900 1299.208, 693.833 1299.564 L 699.167 1300.211 698.546 1291.355 C 698.205 1286.485, 697.280 1272.150, 696.490 1259.500 C 695.700 1246.850, 693.940 1219.175, 692.579 1198 C 691.219 1176.825, 689.799 1154.438, 689.424 1148.250 C 688.987 1141.030, 688.341 1136.993, 687.621 1136.981 C 687.005 1136.970, 682 1136.309, 676.500 1135.512 C 664.854 1133.825, 663.270 1133.738, 662.683 1134.750 M 734.626 1138.744 L 727.751 1139.097 728.372 1145.799 C 728.714 1149.484, 729.901 1166.450, 731.011 1183.500 C 734.342 1234.672, 737.934 1287.101, 738.561 1293.710 C 739.136 1299.768, 739.216 1299.909, 741.825 1299.494 C 743.296 1299.259, 757.438 1298.302, 773.250 1297.367 L 802 1295.667 802 1287.892 C 802 1283.616, 801.610 1279.877, 801.133 1279.582 C 800.656 1279.287, 791.544 1279.708, 780.883 1280.516 C 770.222 1281.324, 760.118 1281.989, 758.429 1281.993 L 755.358 1282 754.153 1261.750 C 753.001 1242.389, 747.735 1163.546, 746.439 1146.250 C 745.863 1138.570, 745.671 1138.014, 743.660 1138.196 C 742.472 1138.304, 738.407 1138.550, 734.626 1138.744 M 663.755 1181.331 C 659.496 1194.624, 653.144 1214.349, 649.639 1225.164 L 643.268 1244.828 646.384 1245.367 C 656.181 1247.064, 677.071 1249.262, 677.674 1248.659 C 678.447 1247.886, 673.097 1161.548, 672.108 1158.831 C 671.750 1157.849, 668.314 1167.106, 663.755 1181.331 M 538.181 1217.491 C 533.056 1232.604, 529.123 1245.390, 529.442 1245.905 C 530.119 1247.001, 546.799 1252.605, 552.217 1253.557 C 557.207 1254.434, 563.927 1251.156, 567.393 1246.155 C 568.832 1244.078, 571.807 1237.028, 574.005 1230.487 C 580.525 1211.078, 579.370 1203.241, 569.171 1197.689 C 564.552 1195.176, 550.654 1190.015, 548.500 1190.013 C 547.950 1190.013, 543.307 1202.378, 538.181 1217.491" stroke="none" fill="#4d4584" fill-rule="evenodd"/></svg>