<?xml version="1.0" standalone="no"?>
<!DOCTYPE svg PUBLIC "-//W3C//DTD SVG 20010904//EN"
 "http://www.w3.org/TR/2001/REC-SVG-20010904/DTD/svg10.dtd">
<svg version="1.0" xmlns="http://www.w3.org/2000/svg"
 width="500.000000pt" height="500.000000pt" viewBox="0 0 500.000000 500.000000"
 preserveAspectRatio="xMidYMid meet">
<metadata>
Created by potrace 1.14, written by Peter Selinger 2001-2017
</metadata>
<g transform="translate(0.000000,500.000000) scale(0.100000,-0.100000)"
fill="#000000" stroke="none">
<path d="M2407 4804 c-1 -1 -45 -4 -97 -8 -121 -8 -154 -12 -229 -26 -33 -6
-73 -13 -88 -16 -16 -3 -36 -7 -45 -10 -10 -3 -30 -7 -44 -10 -128 -23 -421
-143 -599 -244 -227 -129 -488 -358 -662 -580 -229 -293 -398 -678 -453 -1030
-6 -41 -13 -86 -16 -100 -25 -148 -20 -453 10 -640 4 -25 10 -58 12 -75 35
-222 150 -526 291 -767 27 -46 148 -220 168 -242 5 -7 34 -40 64 -74 96 -113
216 -226 341 -323 177 -137 412 -266 615 -338 50 -18 101 -36 115 -41 35 -13
226 -57 275 -64 23 -4 52 -9 65 -11 96 -20 481 -27 599 -12 449 57 839 220
1186 495 65 52 268 249 325 317 130 152 270 379 352 569 61 143 131 379 153
516 4 25 9 52 10 60 26 145 27 558 2 675 -3 11 -8 40 -11 65 -5 35 -38 177
-60 255 -2 6 -7 24 -11 40 -27 100 -138 352 -202 460 -81 135 -99 161 -202
290 -357 450 -902 766 -1450 841 -25 3 -57 8 -71 10 -46 8 -336 23 -343 18z"/>
</g>
</svg>
